<svg width="157" height="52" viewBox="0 0 157 52" fill="none" xmlns="http://www.w3.org/2000/svg">
<path d="M21.3194 45.0524C19.5272 44.5654 17.8253 43.8165 16.2745 42.8327L20.7272 37.6905L19.6853 37.0191C18.5 36.2568 17.4922 35.2706 16.7246 34.1218C15.957 32.9729 15.446 31.686 15.2235 30.3412C15.0009 28.9964 15.0716 27.6223 15.431 26.3046C15.7904 24.9868 16.4309 23.7535 17.3127 22.6815L17.9854 21.8569L17.1482 21.1611L12.6698 17.682C13.8367 16.3819 15.2021 15.256 16.7205 14.342L15.4994 12.498C13.7744 13.5344 12.2239 14.8129 10.9004 16.2903L6.96316 13.1939L5.50085 14.8778L9.50028 18.009C6.92106 21.6546 5.74336 26.0357 6.1662 30.4122L0.346191 30.9479L0.565539 33.1189L6.49522 32.5727C7.3677 36.6973 9.6523 40.4303 12.9916 43.1876L8.8788 47.9505L10.6482 49.3422L14.8194 44.5236C16.6172 45.6922 18.6008 46.578 20.6943 47.1468L21.3194 45.0524ZM11.288 19.4215L14.856 22.2049C13.3223 24.4549 12.6224 27.128 12.8673 29.7998L8.48032 30.2069C8.11396 26.4135 9.1032 22.6134 11.288 19.4215ZM8.79471 32.364L13.2328 31.9465C13.9137 34.3571 15.3634 36.5074 17.3822 38.1011L14.4575 41.5002C11.586 39.1141 9.60006 35.91 8.79471 32.364Z" fill="#0F4049"/>
<path d="M27.8559 45.3724L25.8379 43.4276C33.7234 35.9996 45.9886 36.5598 46.5077 36.5876L46.3469 39.3083L46.4273 37.9479L46.3505 39.3083C46.2335 39.3083 34.8202 38.8073 27.8559 45.3724Z" fill="#09D4DA"/>
<path d="M28.7807 51.6627L26.4849 50.038C29.0413 46.8229 32.668 44.5281 36.7722 43.5285L37.3608 46.1935C33.9479 47.0717 30.9331 48.9935 28.7807 51.6627Z" fill="#09D4DA"/>
<path d="M25.6624 40.0111C25.5059 40.0115 25.3504 39.988 25.2018 39.9415C24.9084 39.8468 24.6553 39.664 24.4805 39.4205C24.3058 39.177 24.2189 38.8862 24.233 38.5916C24.7192 28.3386 22.2881 19.3728 20.1787 13.6531L22.8803 12.7451C25.6188 20.0636 27.0701 27.7619 27.1759 35.53C30.2979 33.4425 36.5201 30.7079 47.6483 30.8401C43.1828 22.6975 36.7456 15.6829 28.8685 10.3758L30.5136 8.14563C45.4402 18.1238 51.0299 31.2054 51.2602 31.7586C51.3485 31.9705 51.3795 32.2001 51.3505 32.4265C51.3214 32.6528 51.2332 32.8685 51.094 33.054C50.9547 33.2395 50.7688 33.3888 50.5532 33.4883C50.3377 33.5878 50.0993 33.6342 49.86 33.6234C31.9211 32.8093 26.898 39.357 26.8505 39.4231C26.7178 39.6058 26.5401 39.7549 26.3331 39.8573C26.126 39.9598 25.8958 40.0126 25.6624 40.0111Z" fill="#09D4DA"/>
<path d="M19.4878 11.8996C18.2577 8.85393 16.8555 5.87375 15.2873 2.97213C15.1496 2.7206 15.0979 2.43437 15.1395 2.1535C15.1811 1.87263 15.3139 1.61116 15.5193 1.40567C15.7248 1.20018 15.9926 1.06094 16.2853 1.00745C16.578 0.95395 16.881 0.988866 17.1518 1.10731C21.0618 2.81288 24.8577 4.74632 28.5176 6.8966L26.9859 9.1998C26.9456 9.17544 23.9113 7.35585 19.6743 5.2962C21.1878 8.42743 22.1346 10.8211 22.1858 10.9533L19.4878 11.8996Z" fill="#0F4049"/>
<path d="M66.1651 23.3738C66.7475 23.2217 67.3057 22.9958 67.8249 22.7023C68.0915 22.5687 68.3199 22.3753 68.4902 22.1387C68.6167 21.9443 68.6838 21.7202 68.684 21.4916C68.6891 21.2097 68.6008 20.9334 68.4317 20.7018C68.2856 20.492 68.0872 20.3199 67.8541 20.2008C67.3259 20.5498 66.7535 20.8338 66.1505 21.0463C65.3822 21.2989 64.5721 21.4168 63.7596 21.3942C62.9991 21.4239 62.2403 21.3039 61.5307 21.0417C60.8212 20.7795 60.1761 20.3807 59.6359 19.8703C58.5855 18.8498 58.0603 17.3317 58.0603 15.3161C58.0219 14.1533 58.2724 12.9982 58.7914 11.9448C59.2273 11.0966 59.91 10.3853 60.7582 9.89562C61.6332 9.41967 62.6277 9.17914 63.6353 9.19979C64.4487 9.17295 65.259 9.30681 66.0153 9.59294C66.5898 9.82886 67.1374 10.1203 67.6494 10.4627C67.8977 10.3484 68.1116 10.1761 68.2709 9.96173C68.4406 9.74968 68.533 9.49072 68.5341 9.22415C68.5181 9.00547 68.4515 8.79286 68.339 8.60158C68.2265 8.4103 68.0709 8.24508 67.8834 8.11778C67.3427 7.71539 66.7203 7.42398 66.0555 7.26191C65.1639 7.02868 64.2418 6.91854 63.3173 6.93487C61.8913 6.92415 60.4847 7.24924 59.2228 7.8812C57.9555 8.52626 56.9099 9.50449 56.2104 10.6993C55.4078 12.1213 55.0155 13.7203 55.0735 15.3335C55.0735 17.1891 55.4476 18.7373 56.1958 19.9782C56.8874 21.17 57.936 22.1389 59.2082 22.7615C60.526 23.3886 61.983 23.7048 63.4562 23.6835C64.3702 23.7055 65.2826 23.6012 66.1651 23.3738Z" fill="#0F4049"/>
<path d="M82.1517 15.0413C82.1517 13.5128 81.6496 12.3983 80.6455 11.6978C79.6414 10.9974 78.2912 10.6494 76.5949 10.6541C75.8932 10.6512 75.1929 10.713 74.5038 10.8385C73.8976 10.9413 73.3078 11.1178 72.749 11.3638C72.4749 11.4492 72.2362 11.6151 72.0674 11.8376C71.8986 12.0602 71.8083 12.3279 71.8094 12.6024C71.8112 12.8205 71.877 13.0338 71.9995 13.2182C72.1233 13.409 72.2775 13.5804 72.4565 13.7262C73.0412 13.4396 73.6533 13.2066 74.2844 13.0303C74.9804 12.8376 75.7018 12.7404 76.4267 12.7416C77.1989 12.7012 77.9652 12.8896 78.6202 13.2808C78.8966 13.4833 79.115 13.7488 79.2549 14.0529C79.3949 14.357 79.4519 14.6898 79.4208 15.0204V15.6258L75.5493 15.9946C74.087 16.1337 72.9622 16.5106 72.175 17.1253C71.3598 17.7376 70.9942 18.6213 70.9942 19.7694C70.9608 20.3367 71.0819 20.9025 71.3458 21.412C71.6097 21.9216 72.0074 22.3577 72.5004 22.678C73.5069 23.339 74.9035 23.6684 76.6899 23.6661C77.5613 23.6763 78.4306 23.584 79.2782 23.3912C79.9259 23.2476 80.5531 23.0303 81.1463 22.7441C81.4222 22.5763 81.6689 22.3685 81.8775 22.1283C82.0773 21.8548 82.1739 21.5249 82.1517 21.1924V15.0413ZM79.4025 20.9906C79.0803 21.1743 78.7318 21.3126 78.3679 21.4012C77.8126 21.5423 77.239 21.6079 76.6643 21.596C75.6882 21.596 74.9607 21.4325 74.4709 21.0985C74.2381 20.9465 74.0492 20.7414 73.9215 20.5019C73.7937 20.2624 73.7312 19.9962 73.7397 19.7277C73.7258 19.4793 73.7766 19.2315 73.8876 19.0064C73.9986 18.7812 74.1663 18.5856 74.3758 18.4369C74.9493 18.0951 75.6078 17.9042 76.2841 17.8837L79.3806 17.595L79.4025 20.9906Z" fill="#0F4049"/>
<path d="M98.1423 17.1218C98.1987 15.8344 97.888 14.5565 97.243 13.4235C96.6833 12.5014 95.8381 11.7663 94.8229 11.3186C93.7359 10.8558 92.5551 10.6266 91.3645 10.6471C90.5173 10.6368 89.6732 10.747 88.8603 10.9742C88.2021 11.158 87.567 11.41 86.9666 11.7257C86.6443 11.8976 86.3659 12.1352 86.1513 12.4215C85.9825 12.7063 85.9014 13.0307 85.9174 13.3574V26.9956C85.8999 27.1712 85.9259 27.3482 85.9932 27.5125C86.0605 27.6769 86.1672 27.8239 86.3049 27.942C86.6472 28.1572 87.0546 28.2587 87.4638 28.2307C87.7189 28.2333 87.9737 28.2111 88.2242 28.1646C88.3972 28.1354 88.5681 28.0959 88.736 28.0463V23.0399C89.0236 23.1668 89.3205 23.2737 89.6243 23.3599C90.305 23.5599 91.0141 23.6585 91.7264 23.6522C92.8819 23.673 94.0253 23.4245 95.0568 22.9285C96.0278 22.4366 96.8165 21.6727 97.3161 20.7401C97.9001 19.6171 98.1839 18.3743 98.1423 17.1218ZM94.2014 20.4375C93.8272 20.7918 93.3792 21.0678 92.8862 21.2476C92.3932 21.4273 91.8661 21.5069 91.3389 21.4812C90.6918 21.5013 90.0483 21.3823 89.4562 21.1333C89.2035 21.0205 88.9592 20.8915 88.725 20.7471V13.4618C89.0893 13.2918 89.4641 13.1431 89.8473 13.0164C90.3329 12.8639 90.8424 12.7921 91.3535 12.8042C92.0335 12.7967 92.7058 12.9409 93.3167 13.2252C93.9259 13.5242 94.42 13.9992 94.7278 14.5821C95.117 15.3755 95.2976 16.2471 95.2542 17.1218C95.2615 18.6318 94.9106 19.737 94.2014 20.4375Z" fill="#0F4049"/>
<path d="M108.737 22.1248C108.742 21.9064 108.695 21.6896 108.598 21.4916C108.514 21.3264 108.402 21.1759 108.265 21.0463C107.969 21.1813 107.659 21.2863 107.34 21.3594C107.011 21.4447 106.672 21.4891 106.331 21.4916C105.762 21.5205 105.197 21.3833 104.712 21.0985C104.501 20.9351 104.335 20.7242 104.231 20.4849C104.127 20.2455 104.088 19.9853 104.116 19.7277V13.4096H107.713C107.848 13.4145 107.983 13.3926 108.109 13.3453C108.235 13.298 108.349 13.2262 108.444 13.1347C108.647 12.9026 108.747 12.6042 108.722 12.3032C108.729 12.0991 108.704 11.8951 108.649 11.6978C108.6 11.5414 108.53 11.3917 108.441 11.2525H104.116V8.63617C104.135 8.46387 104.112 8.28961 104.049 8.12718C103.986 7.96474 103.883 7.81859 103.75 7.70028C103.419 7.49432 103.026 7.39773 102.632 7.42542C102.372 7.42323 102.112 7.44537 101.857 7.49153C101.682 7.51609 101.508 7.54977 101.337 7.59242V19.9121C101.337 21.2481 101.748 22.2048 102.569 22.7824C103.388 23.3599 104.481 23.6521 105.86 23.6521C106.611 23.6963 107.362 23.546 108.031 23.2173C108.24 23.1111 108.415 22.954 108.539 22.762C108.663 22.57 108.732 22.3501 108.737 22.1248Z" fill="#0F4049"/>
<path d="M121.93 22.1387C122.133 21.8664 122.231 21.5359 122.208 21.2029V15.0413C122.208 13.5128 121.706 12.3983 120.702 11.6978C119.698 10.9974 118.346 10.6494 116.648 10.6541C115.947 10.6512 115.248 10.713 114.56 10.8385C113.953 10.9408 113.362 11.1174 112.802 11.3638C112.528 11.4501 112.29 11.6162 112.122 11.8386C111.953 12.0609 111.862 12.3282 111.862 12.6024C111.865 12.8208 111.932 13.0341 112.056 13.2182C112.174 13.4106 112.324 13.5843 112.498 13.7331C113.083 13.4465 113.695 13.2135 114.326 13.0373C115.023 12.8446 115.746 12.7474 116.472 12.7485C117.244 12.7072 118.011 12.8957 118.666 13.2878C118.943 13.4894 119.163 13.7547 119.303 14.0589C119.444 14.3632 119.501 14.6964 119.47 15.0274V15.6327L115.595 15.9911C114.132 16.1303 113.008 16.5072 112.22 17.1218C111.427 17.7376 111.032 18.6213 111.032 19.7799C110.999 20.3471 111.12 20.9129 111.384 21.4225C111.648 21.9321 112.045 22.3681 112.538 22.6884C113.545 23.3495 114.943 23.6788 116.732 23.6765C117.602 23.6867 118.47 23.5944 119.316 23.4017C119.964 23.2586 120.591 23.0413 121.184 22.7546C121.467 22.5898 121.719 22.3817 121.93 22.1387ZM119.47 20.9906C119.146 21.1742 118.797 21.3125 118.432 21.4012C117.877 21.5421 117.305 21.6077 116.732 21.596C115.752 21.596 115.024 21.4325 114.538 21.0985C114.306 20.9463 114.117 20.7411 113.989 20.5017C113.862 20.2622 113.799 19.9961 113.807 19.7277C113.793 19.4793 113.844 19.2315 113.955 19.0064C114.066 18.7812 114.234 18.5856 114.443 18.4369C115.017 18.0951 115.675 17.9042 116.351 17.8837L119.452 17.595L119.47 20.9906Z" fill="#0F4049"/>
<path d="M127.52 8.77537C127.747 8.78646 127.974 8.7526 128.187 8.67595C128.399 8.5993 128.593 8.48152 128.756 8.33004C128.908 8.18541 129.028 8.01276 129.109 7.82257C129.189 7.63239 129.228 7.42863 129.223 7.22367C129.228 7.01297 129.187 6.80358 129.104 6.60834C129.021 6.41311 128.896 6.23613 128.739 6.08825C128.581 5.94037 128.393 5.8247 128.186 5.74834C127.98 5.67197 127.759 5.63652 127.538 5.64414C127.311 5.63661 127.084 5.67348 126.872 5.75246C126.66 5.83144 126.468 5.95087 126.306 6.10339C126.15 6.24921 126.027 6.42372 125.944 6.61631C125.861 6.80891 125.82 7.01555 125.824 7.22367C125.819 7.42986 125.859 7.63472 125.943 7.8252C126.026 8.01568 126.149 8.18761 126.306 8.33004C126.467 8.47709 126.658 8.59219 126.866 8.66864C127.074 8.74509 127.297 8.78137 127.52 8.77537Z" fill="#0F4049"/>
<path d="M127.407 10.8837C127.152 10.8813 126.897 10.9034 126.646 10.9498C126.416 10.9915 126.237 11.0333 126.109 11.0681V22.2292C126.089 22.407 126.113 22.5869 126.181 22.754C126.248 22.921 126.356 23.0703 126.497 23.1894C126.833 23.3955 127.23 23.4931 127.63 23.4677C127.886 23.4693 128.141 23.4424 128.39 23.3877C128.621 23.3355 128.8 23.2903 128.931 23.2555V12.1153C128.953 11.9392 128.931 11.7608 128.868 11.5941C128.804 11.4274 128.701 11.2771 128.566 11.155C128.221 10.9455 127.814 10.8501 127.407 10.8837Z" fill="#0F4049"/>
<path d="M143.013 11.7918C142.009 11.0263 140.621 10.6448 138.85 10.6471C137.906 10.6335 136.965 10.7507 136.056 10.995C135.351 11.1813 134.673 11.4513 134.039 11.7987C133.711 11.9905 133.424 12.2396 133.194 12.5328C133.006 12.8252 132.914 13.1645 132.931 13.507V22.2048C132.91 22.3827 132.935 22.5626 133.002 22.7296C133.07 22.8966 133.178 23.0459 133.318 23.1651C133.665 23.3729 134.072 23.4704 134.481 23.4434C134.737 23.445 134.992 23.4181 135.241 23.3634C135.472 23.3112 135.643 23.266 135.753 23.2312V13.5696C136.177 13.3417 136.627 13.1608 137.095 13.0303C137.656 12.8731 138.239 12.7968 138.824 12.8042C139.582 12.7677 140.33 12.9815 140.941 13.4096C141.462 13.8131 141.724 14.4545 141.727 15.3335V22.2292C141.707 22.4051 141.73 22.583 141.793 22.7493C141.857 22.9156 141.959 23.0661 142.092 23.1894C142.435 23.4032 142.843 23.5012 143.251 23.4678C143.503 23.4679 143.755 23.4411 144.001 23.3877C144.238 23.3356 144.414 23.2903 144.527 23.2555V15.2257C144.512 13.6972 144.008 12.5525 143.013 11.7918Z" fill="#0F4049"/>
<path d="M78.7775 39.6528C78.7044 38.6438 78.6264 37.6128 78.5435 36.5598C78.4594 35.5161 78.3717 34.4967 78.2803 33.533C78.1889 32.5692 78.0975 31.7273 78.0025 31.0071C77.9074 30.2869 77.827 29.7685 77.7539 29.4519C77.7217 29.2906 77.6499 29.1388 77.5445 29.0088C77.439 28.8788 77.3029 28.7744 77.147 28.7039C76.7408 28.5217 76.2943 28.4357 75.8456 28.4534C75.5434 28.4549 75.2421 28.4853 74.9462 28.5439C74.6933 28.5891 74.4476 28.6651 74.2151 28.77C73.6984 29.9088 73.0891 31.3005 72.3872 32.945C71.6853 34.5895 70.9614 36.2966 70.2156 38.0663H70.1023C69.7367 37.2035 69.3419 36.285 68.9288 35.283C68.5157 34.281 68.0953 33.3172 67.6712 32.3361C67.2471 31.355 66.8194 30.4469 66.3953 29.6224C66.2397 29.2483 65.9581 28.9339 65.5947 28.7283C65.1688 28.518 64.6921 28.4184 64.2128 28.4395C63.7947 28.427 63.3789 28.5031 62.9955 28.6621C62.7283 28.768 62.4813 28.9149 62.2643 29.097C62.1912 30.0619 62.1083 31.1323 62.0157 32.3083C61.9243 33.4842 61.8293 34.6741 61.7379 35.8744C61.6465 37.0747 61.5697 38.2159 61.5039 39.284C61.4381 40.3521 61.3869 41.2706 61.3504 42.036C61.3138 42.8014 61.2955 43.3128 61.2955 43.5773C61.2856 43.7311 61.3116 43.8852 61.3716 44.0283C61.4317 44.1715 61.5243 44.3002 61.6428 44.4053C61.9638 44.6153 62.3515 44.7124 62.7396 44.6801C62.9844 44.6822 63.229 44.6647 63.4707 44.628C63.6599 44.6005 63.8459 44.5562 64.0264 44.4958C64.0995 43.3024 64.1653 42.1821 64.2202 41.1279C64.275 40.0738 64.3335 39.0404 64.3993 38.0593C64.4651 37.0782 64.5236 36.0345 64.5784 34.9524C64.6333 33.8704 64.6881 32.7119 64.7429 31.4733H64.8563C65.2438 32.4544 65.7507 33.6826 66.3771 35.1577C67.0034 36.6329 67.7504 38.3005 68.6181 40.1607C68.6713 40.2819 68.7505 40.3912 68.8506 40.4816C68.9507 40.5721 69.0694 40.6417 69.1993 40.6861C69.5172 40.7988 69.8546 40.8532 70.1937 40.8461C70.4812 40.8499 70.7671 40.8051 71.0382 40.7139C71.2564 40.6409 71.465 40.544 71.6597 40.4251C72.598 38.2124 73.3779 36.4044 73.9994 35.0012C74.6209 33.5979 75.1083 32.4486 75.4617 31.5533H75.5714C75.6274 32.379 75.6871 33.4228 75.7505 34.6845C75.8139 35.9463 75.8882 37.3461 75.9735 38.8839C76.0539 40.4101 76.1417 41.9803 76.2367 43.5946C76.2329 43.7648 76.2753 43.933 76.3599 44.0829C76.4444 44.2329 76.5682 44.3595 76.7193 44.4505C77.0218 44.6034 77.3603 44.68 77.7027 44.6732C77.9718 44.6781 78.2406 44.6524 78.5033 44.5966C78.7285 44.5406 78.9432 44.4514 79.1394 44.3322C79.1394 43.8591 79.0809 43.2085 79.0151 42.3839C78.9493 41.5593 78.8506 40.6617 78.7775 39.6528Z" fill="#0F4049"/>
<path d="M91.7115 32.9275C90.7074 32.2317 89.3559 31.8838 87.6572 31.8838C86.9569 31.8828 86.258 31.9446 85.5698 32.0682C84.9624 32.1726 84.3715 32.3503 83.8113 32.597C83.5381 32.6827 83.3002 32.8481 83.1316 33.0699C82.9629 33.2916 82.872 33.5584 82.8718 33.8321C82.8747 34.0517 82.9418 34.2661 83.0656 34.4514C83.186 34.6425 83.335 34.816 83.5079 34.9663C84.0926 34.6797 84.7047 34.4467 85.3358 34.2705C86.0332 34.0781 86.7557 33.9809 87.4817 33.9817C88.254 33.9399 89.0208 34.1285 89.6752 34.521C89.95 34.7209 90.1673 34.9835 90.3073 35.2845C90.4472 35.5855 90.5052 35.9152 90.4758 36.2432V36.8485L86.6044 37.2173C85.142 37.3588 84.0173 37.7369 83.2301 38.3515C82.4429 38.9662 82.0456 39.8522 82.0383 41.0096C82.006 41.577 82.128 42.1428 82.3924 42.6523C82.6569 43.1618 83.055 43.5978 83.5481 43.9182C84.5498 44.5757 85.95 44.9062 87.7376 44.9062C88.608 44.9154 89.4761 44.8219 90.3223 44.6279C90.9727 44.487 91.6025 44.2709 92.1977 43.9843C92.4808 43.8174 92.7338 43.6083 92.9471 43.365C93.147 43.0927 93.2436 42.764 93.2213 42.4326V36.271C93.2189 34.7425 92.7156 33.628 91.7115 32.9275ZM90.4795 42.2203C90.1567 42.4046 89.8067 42.5418 89.4412 42.6274C88.8874 42.7701 88.315 42.8369 87.7413 42.8257C86.7652 42.8257 86.0341 42.6587 85.5478 42.3247C85.3154 42.1733 85.1266 41.9688 84.9989 41.7299C84.8711 41.491 84.8085 41.2254 84.8167 40.9574C84.8028 40.709 84.8536 40.4613 84.9646 40.2361C85.0756 40.0109 85.2433 39.8153 85.4528 39.6666C86.0259 39.3213 86.6866 39.1301 87.3648 39.1135L90.4612 38.8247L90.4795 42.2203Z" fill="#0F4049"/>
<path d="M102.928 31.8734C102 31.8668 101.074 31.9732 100.175 32.19C99.4588 32.3526 98.7732 32.619 98.1422 32.9798C97.8028 33.1832 97.5075 33.4465 97.2721 33.7556C97.066 34.0674 96.9641 34.4313 96.9796 34.7994V43.4624C96.9592 43.6403 96.9838 43.8202 97.0512 43.9872C97.1186 44.1542 97.2269 44.3035 97.3671 44.4227C97.7143 44.6291 98.1214 44.7253 98.5297 44.6975C98.7854 44.7002 99.0406 44.6745 99.2901 44.621C99.5204 44.5653 99.6922 44.5236 99.8019 44.4888V34.8515C100.291 34.6012 100.812 34.4118 101.352 34.2879C102.022 34.1307 102.709 34.0547 103.399 34.0618C103.69 34.0616 103.98 34.0756 104.269 34.1035C104.506 34.1222 104.741 34.1524 104.975 34.194C105.09 34.062 105.179 33.9111 105.238 33.7487C105.303 33.5612 105.335 33.3649 105.333 33.1676C105.333 32.3071 104.531 31.8757 102.928 31.8734Z" fill="#0F4049"/>
<path d="M116.926 34.9803C117.268 34.7204 117.587 34.4342 117.88 34.1244C118.089 33.895 118.203 33.6002 118.198 33.2964C118.203 33.1145 118.161 32.9343 118.076 32.7712C117.992 32.6082 117.867 32.4672 117.712 32.3605C117.317 32.106 116.845 31.9836 116.37 32.0126L110.62 37.3913V28.4673C110.64 28.2934 110.618 28.1172 110.554 27.9529C110.491 27.7886 110.388 27.6407 110.254 27.521C109.917 27.3174 109.519 27.2245 109.121 27.2566C108.861 27.2563 108.601 27.2784 108.346 27.3227C108.104 27.3679 107.922 27.4062 107.794 27.441V43.445C107.773 43.6229 107.798 43.8028 107.865 43.9698C107.933 44.1368 108.041 44.2861 108.181 44.4053C108.527 44.6123 108.933 44.7086 109.34 44.6801C109.597 44.6827 109.853 44.657 110.104 44.6036C110.334 44.5479 110.503 44.5062 110.616 44.4714V38.8212L115.511 43.692C115.774 43.9829 116.076 44.2391 116.41 44.454C116.694 44.6304 117.026 44.7225 117.364 44.7184C117.568 44.7277 117.772 44.6948 117.961 44.6222C118.151 44.5495 118.321 44.4387 118.461 44.2974C118.745 43.9707 118.906 43.5628 118.918 43.1389L113.168 38.115L116.926 34.9803Z" fill="#0F4049"/>
<path d="M130.035 32.5588C129.091 32.085 128.036 31.8456 126.968 31.8629C126.118 31.8608 125.274 32.0071 124.479 32.2944C123.722 32.5636 123.033 32.9808 122.457 33.519C121.864 34.0867 121.407 34.7689 121.115 35.5195C120.779 36.401 120.615 37.3338 120.633 38.2715C120.588 39.5395 120.893 40.7965 121.517 41.9177C122.082 42.8868 122.946 43.6676 123.992 44.1548C125.163 44.6786 126.446 44.9359 127.739 44.9063C128.523 44.9165 129.305 44.8276 130.065 44.6418C130.661 44.5073 131.221 44.2561 131.71 43.9043C131.892 43.7884 132.043 43.6337 132.15 43.4525C132.258 43.2713 132.32 43.0686 132.331 42.8605C132.333 42.6204 132.256 42.3857 132.112 42.189C131.963 41.9864 131.776 41.8118 131.56 41.6741C131.097 42.0034 130.582 42.2616 130.035 42.4395C129.353 42.675 128.633 42.7928 127.908 42.7875C126.771 42.8417 125.651 42.5059 124.753 41.8411C124.1 41.2967 123.653 40.5633 123.48 39.7536L131.615 38.6542C131.963 38.6251 132.292 38.491 132.554 38.2715C132.676 38.1416 132.768 37.9893 132.825 37.8242C132.882 37.659 132.903 37.4845 132.887 37.3113C132.903 36.324 132.641 35.3507 132.126 34.4932C131.634 33.6745 130.909 33.0042 130.035 32.5588ZM123.323 37.7775C123.367 36.5876 123.689 35.6656 124.34 35.0116C124.668 34.6696 125.071 34.3992 125.519 34.2191C125.968 34.0389 126.452 33.9532 126.939 33.9678C127.37 33.9427 127.801 34.0034 128.206 34.146C128.611 34.2885 128.98 34.5099 129.29 34.7959C129.847 35.359 130.179 36.0902 130.229 36.8625L123.323 37.7775Z" fill="#0F4049"/>
<path d="M138.696 37.5861V34.6393H142.282C142.42 34.6454 142.559 34.6237 142.688 34.5758C142.817 34.5278 142.934 34.4547 143.031 34.361C143.231 34.1289 143.33 33.8322 143.306 33.5329C143.305 33.3278 143.273 33.1238 143.21 32.9276C143.161 32.7703 143.091 32.6196 143.002 32.4787H138.688V29.859C138.708 29.6867 138.685 29.5124 138.622 29.35C138.558 29.1875 138.456 29.0414 138.323 28.9231C137.99 28.718 137.596 28.6215 137.2 28.6482C136.94 28.6462 136.681 28.6683 136.425 28.7143C136.248 28.7435 136.072 28.783 135.899 28.8326V41.1523C135.899 42.4848 136.312 43.4415 137.131 44.0225C137.95 44.6036 139.047 44.8889 140.421 44.8889C141.173 44.9347 141.924 44.7844 142.593 44.454C142.807 44.3514 142.987 44.1957 143.116 44.0034C143.245 43.8111 143.317 43.5894 143.324 43.3615C143.331 43.1444 143.285 42.9288 143.189 42.7318C143.102 42.567 142.99 42.4157 142.856 42.283C142.56 42.4208 142.248 42.5269 141.927 42.5996C141.598 42.6834 141.259 42.7278 140.918 42.7318C140.349 42.7608 139.783 42.6223 139.299 42.3352C138.904 42.0754 138.707 41.6196 138.707 40.9679V37.5966L138.696 37.5861Z" fill="#0F4049"/>
<path d="M155.055 38.7308C154.4 38.1068 153.381 37.643 151.999 37.3391L150.325 36.9564C149.846 36.8754 149.398 36.6749 149.027 36.3754C148.901 36.2598 148.802 36.1207 148.735 35.9669C148.668 35.813 148.636 35.6477 148.64 35.4813C148.636 35.2541 148.699 35.0306 148.821 34.8353C148.943 34.6401 149.119 34.4807 149.33 34.3749C149.892 34.0899 150.523 33.9541 151.158 33.9817C151.657 33.9793 152.155 34.0365 152.639 34.1522C153.063 34.2527 153.479 34.3842 153.882 34.5454C154.185 34.6668 154.478 34.8123 154.756 34.9803C154.965 34.8701 155.137 34.7061 155.253 34.5071C155.38 34.2953 155.447 34.0554 155.447 33.8113C155.439 33.616 155.384 33.4251 155.286 33.2536C155.187 33.0821 155.048 32.9348 154.88 32.8232C154.415 32.4909 153.882 32.2539 153.315 32.1274C152.556 31.9497 151.776 31.8655 150.994 31.8769C149.334 31.8769 148.066 32.2248 147.188 32.9206C146.777 33.224 146.445 33.6134 146.217 34.0587C145.99 34.5039 145.873 34.9931 145.876 35.4882C145.859 35.8973 145.927 36.3056 146.076 36.6895C146.225 37.0734 146.453 37.4255 146.746 37.7253C147.326 38.3052 148.235 38.7261 149.473 38.9882L151.436 39.4649C151.933 39.5605 152.396 39.7775 152.778 40.0946C152.929 40.2343 153.047 40.4023 153.126 40.588C153.205 40.7737 153.242 40.973 153.235 41.1731C153.235 42.2447 152.359 42.7805 150.606 42.7805C149.821 42.795 149.04 42.6602 148.311 42.3839C147.69 42.1447 147.097 41.8451 146.541 41.4897C146.306 41.6264 146.11 41.8165 145.971 42.0429C145.836 42.2675 145.765 42.5218 145.766 42.7805C145.766 43.358 146.219 43.859 147.133 44.28C148.255 44.7409 149.47 44.9572 150.69 44.9132C152.423 44.9132 153.745 44.5838 154.657 43.9251C155.104 43.6075 155.462 43.1907 155.701 42.7111C155.94 42.2314 156.052 41.7034 156.028 41.1731C156.049 40.7245 155.973 40.2766 155.806 39.8567C155.639 39.4367 155.383 39.0537 155.055 38.7308Z" fill="#0F4049"/>
</svg>
