<svg width="157" height="54" viewBox="0 0 157 54" fill="none" xmlns="http://www.w3.org/2000/svg">
<path d="M21.3194 46.5924C19.5272 46.0779 17.8253 45.2868 16.2745 44.2475L20.7272 38.8155L19.6853 38.1062C18.5 37.301 17.4922 36.2592 16.7246 35.0456C15.957 33.832 15.446 32.4726 15.2235 31.052C15.0009 29.6313 15.0716 28.1798 15.431 26.7878C15.7904 25.3958 16.4309 24.093 17.3127 22.9606L17.9854 22.0895L17.1482 21.3545L12.6698 17.6792C13.8367 16.3059 15.2021 15.1165 16.7205 14.151L15.4994 12.2031C13.7744 13.2979 12.2239 14.6485 10.9004 16.2091L6.96316 12.9382L5.50085 14.717L9.50028 18.0247C6.92106 21.8757 5.74336 26.5038 6.1662 31.1269L0.346191 31.6929L0.565539 33.9863L6.49522 33.4093C7.3677 37.7663 9.6523 41.7097 12.9916 44.6224L8.8788 49.6538L10.6482 51.1239L14.8194 46.0337C16.6172 47.2683 18.6008 48.2039 20.6943 48.8048L21.3194 46.5924ZM11.288 19.5169L14.856 22.457C13.3223 24.8339 12.6224 27.6577 12.8673 30.4801L8.48032 30.9101C8.11396 26.9029 9.1032 22.8887 11.288 19.5169ZM8.79471 33.1887L13.2328 32.7477C13.9137 35.2942 15.3634 37.5657 17.3822 39.2492L14.4575 42.8399C11.586 40.3193 9.60006 36.9346 8.79471 33.1887Z" fill="white"/>
<path d="M27.856 46.9297L25.838 44.8753C33.7235 37.0286 45.9887 37.6203 46.5078 37.6497L46.3469 40.5238L46.4274 39.0868L46.3506 40.5238C46.2336 40.5238 34.8202 39.9945 27.856 46.9297Z" fill="#09D4DA"/>
<path d="M28.7807 53.5751L26.4849 51.8588C29.0413 48.4625 32.668 46.0383 36.7722 44.9824L37.3608 47.7977C33.9479 48.7254 30.9331 50.7554 28.7807 53.5751Z" fill="#09D4DA"/>
<path d="M25.6624 41.267C25.5059 41.2674 25.3504 41.2426 25.2018 41.1935C24.9084 41.0935 24.6553 40.9003 24.4805 40.6431C24.3058 40.3859 24.2189 40.0786 24.233 39.7675C24.7192 28.9366 22.2881 19.4655 20.1787 13.4234L22.8803 12.4641C25.6188 20.1952 27.0701 28.3274 27.1759 36.5333C30.2979 34.3281 36.5201 31.4394 47.6483 31.5791C43.1828 22.9775 36.7456 15.5675 28.8685 9.9613L30.5136 7.60547C45.4402 18.1461 51.0299 31.965 51.2602 32.5493C51.3485 32.7732 51.3795 33.0158 51.3505 33.2548C51.3214 33.4939 51.2332 33.7218 51.094 33.9178C50.9547 34.1137 50.7688 34.2715 50.5532 34.3765C50.3377 34.4816 50.0993 34.5307 49.86 34.5193C31.9211 33.6592 26.898 40.5761 26.8505 40.6459C26.7178 40.8389 26.5401 40.9963 26.3331 41.1045C26.126 41.2128 25.8958 41.2686 25.6624 41.267Z" fill="#09D4DA"/>
<path d="M19.4879 11.5709C18.2578 8.35359 16.8556 5.20544 15.2874 2.14027C15.1496 1.87456 15.0979 1.57221 15.1395 1.2755C15.1811 0.978802 15.314 0.702594 15.5194 0.48552C15.7249 0.268445 15.9927 0.121365 16.2854 0.064853C16.5781 0.00834088 16.881 0.0452249 17.1518 0.170345C21.0619 1.97205 24.8577 4.01446 28.5177 6.28594L26.9859 8.71895C26.9457 8.69322 23.9114 6.77108 19.6743 4.59533C21.1878 7.90305 22.1347 10.4316 22.1859 10.5713L19.4879 11.5709Z" fill="white"/>
<path d="M66.1651 23.6914C66.7475 23.5307 67.3057 23.2921 67.8249 22.9821C68.0915 22.8409 68.3199 22.6366 68.4902 22.3867C68.6167 22.1813 68.6838 21.9446 68.684 21.7031C68.6891 21.4053 68.6008 21.1134 68.4317 20.8688C68.2856 20.6471 68.0872 20.4653 67.8541 20.3396C67.3259 20.7082 66.7535 21.0083 66.1505 21.2327C65.3822 21.4995 64.5721 21.6241 63.7596 21.6002C62.9991 21.6316 62.2403 21.5048 61.5307 21.2278C60.8212 20.9508 60.1761 20.5296 59.6359 19.9904C58.5855 18.9124 58.0603 17.3087 58.0603 15.1795C58.0219 13.9511 58.2724 12.731 58.7914 11.6182C59.2273 10.7222 59.91 9.97085 60.7582 9.45352C61.6332 8.95074 62.6277 8.69666 63.6353 8.71847C64.4487 8.69011 65.259 8.83152 66.0153 9.13377C66.5898 9.38299 67.1374 9.69088 67.6494 10.0526C67.8977 9.93187 68.1116 9.74978 68.2709 9.52335C68.4406 9.29935 68.533 9.02579 68.5341 8.7442C68.5181 8.51319 68.4515 8.2886 68.339 8.08654C68.2265 7.88448 68.0709 7.70995 67.8834 7.57547C67.3427 7.15041 66.7203 6.84257 66.0555 6.67136C65.1639 6.42499 64.2418 6.30864 63.3173 6.32589C61.8913 6.31456 60.4847 6.65798 59.2228 7.32556C57.9555 8.00697 56.9099 9.04034 56.2104 10.3025C55.4078 11.8046 55.0155 13.4938 55.0735 15.1979C55.0735 17.158 55.4476 18.7935 56.1958 20.1044C56.8874 21.3633 57.936 22.3868 59.2082 23.0446C60.526 23.707 61.983 24.041 63.4562 24.0185C64.3702 24.0417 65.2826 23.9315 66.1651 23.6914Z" fill="white"/>
<path d="M82.1517 14.8904C82.1517 13.2758 81.6497 12.0985 80.6455 11.3585C79.6414 10.6186 78.2912 10.2511 76.5949 10.256C75.8933 10.2529 75.193 10.3182 74.5038 10.4507C73.8976 10.5593 73.3079 10.7458 72.749 11.0057C72.4749 11.0959 72.2363 11.2711 72.0675 11.5062C71.8987 11.7413 71.8083 12.0241 71.8095 12.3141C71.8113 12.5445 71.8771 12.7698 71.9996 12.9646C72.1234 13.1662 72.2775 13.3472 72.4566 13.5012C73.0413 13.1984 73.6534 12.9523 74.2845 12.7661C74.9805 12.5626 75.7019 12.4599 76.4268 12.4611C77.1989 12.4184 77.9652 12.6175 78.6202 13.0308C78.8967 13.2446 79.115 13.5251 79.255 13.8463C79.3949 14.1676 79.452 14.5191 79.4209 14.8684V15.5079L75.5494 15.8975C74.0871 16.0445 72.9623 16.4426 72.1751 17.0919C71.3598 17.7387 70.9943 18.6723 70.9943 19.8851C70.9609 20.4843 71.082 21.082 71.3458 21.6203C71.6097 22.1586 72.0074 22.6192 72.5004 22.9576C73.507 23.6559 74.9035 24.0038 76.69 24.0014C77.5613 24.0121 78.4307 23.9146 79.2783 23.711C79.926 23.5593 80.5532 23.3298 81.1464 23.0274C81.4223 22.8501 81.669 22.6307 81.8775 22.3769C82.0774 22.0879 82.174 21.7395 82.1517 21.3883V14.8904ZM79.4026 21.1751C79.0803 21.3691 78.7319 21.5152 78.368 21.6088C77.8126 21.7579 77.2391 21.8272 76.6644 21.8146C75.6883 21.8146 74.9608 21.6419 74.4709 21.289C74.2382 21.1285 74.0493 20.9118 73.9215 20.6588C73.7938 20.4058 73.7313 20.1246 73.7398 19.841C73.7259 19.5786 73.7767 19.3169 73.8877 19.079C73.9986 18.8411 74.1663 18.6345 74.3759 18.4775C74.9493 18.1164 75.6079 17.9147 76.2842 17.8931L79.3806 17.5881L79.4026 21.1751Z" fill="white"/>
<path d="M98.1423 17.0871C98.1987 15.7271 97.888 14.3771 97.243 13.1803C96.6833 12.2062 95.8381 11.4297 94.8229 10.9568C93.7359 10.4679 92.5551 10.2257 91.3645 10.2474C90.5173 10.2365 89.6732 10.3529 88.8603 10.5929C88.2021 10.7871 87.567 11.0533 86.9666 11.3868C86.6443 11.5684 86.3659 11.8194 86.1513 12.1218C85.9825 12.4227 85.9014 12.7653 85.9174 13.1104V27.5174C85.8999 27.7029 85.9259 27.8899 85.9932 28.0634C86.0605 28.237 86.1672 28.3923 86.3049 28.5171C86.6472 28.7444 87.0546 28.8516 87.4638 28.8221C87.7189 28.8248 87.9737 28.8014 88.2242 28.7523C88.3972 28.7214 88.5681 28.6797 88.736 28.6273V23.3386C89.0236 23.4727 89.3205 23.5857 89.6243 23.6768C90.305 23.8881 91.0141 23.9922 91.7264 23.9855C92.8819 24.0074 94.0253 23.745 95.0568 23.221C96.0278 22.7014 96.8165 21.8944 97.3161 20.9093C97.9001 19.723 98.1839 18.4101 98.1423 17.0871ZM94.2014 20.5896C93.8272 20.9639 93.3792 21.2554 92.8862 21.4453C92.3932 21.6352 91.8661 21.7193 91.3389 21.6921C90.6918 21.7133 90.0483 21.5877 89.4562 21.3246C89.2035 21.2055 88.9592 21.0692 88.725 20.9167V13.2207C89.0893 13.0412 89.4641 12.8841 89.8473 12.7503C90.3329 12.5891 90.8424 12.5133 91.3535 12.5261C92.0335 12.5182 92.7058 12.6705 93.3167 12.9708C93.9259 13.2866 94.42 13.7884 94.7278 14.4041C95.117 15.2423 95.2976 16.1631 95.2542 17.0871C95.2615 18.6821 94.9106 19.8496 94.2014 20.5896Z" fill="white"/>
<path d="M108.737 22.3726C108.742 22.1419 108.695 21.913 108.598 21.7037C108.514 21.5293 108.402 21.3702 108.265 21.2333C107.969 21.376 107.659 21.4868 107.34 21.5641C107.011 21.6542 106.672 21.7011 106.331 21.7037C105.762 21.7343 105.197 21.5894 104.712 21.2884C104.501 21.1159 104.335 20.8931 104.231 20.6403C104.127 20.3874 104.088 20.1125 104.116 19.8404V13.1662H107.713C107.848 13.1714 107.983 13.1482 108.109 13.0983C108.235 13.0483 108.349 12.9725 108.444 12.8758C108.647 12.6306 108.747 12.3154 108.722 11.9974C108.729 11.7818 108.704 11.5664 108.649 11.3579C108.6 11.1927 108.53 11.0346 108.441 10.8875H104.116V8.12374C104.135 7.94173 104.112 7.75765 104.049 7.58606C103.986 7.41447 103.883 7.26008 103.75 7.1351C103.419 6.91753 103.026 6.8155 102.632 6.84475C102.372 6.84244 102.112 6.86583 101.857 6.91458C101.682 6.94053 101.508 6.97611 101.337 7.02117V20.0352C101.337 21.4465 101.748 22.4572 102.569 23.0673C103.388 23.6774 104.481 23.9861 105.86 23.9861C106.611 24.0327 107.362 23.8739 108.031 23.5267C108.24 23.4146 108.415 23.2486 108.539 23.0458C108.663 22.843 108.732 22.6106 108.737 22.3726Z" fill="white"/>
<path d="M121.93 22.3879C122.133 22.1002 122.231 21.7511 122.208 21.3993V14.8904C122.208 13.2758 121.706 12.0985 120.702 11.3585C119.698 10.6186 118.346 10.2511 116.648 10.256C115.947 10.2529 115.248 10.3182 114.56 10.4507C113.953 10.5588 113.362 10.7454 112.802 11.0057C112.528 11.0969 112.29 11.2723 112.122 11.5072C111.953 11.7421 111.862 12.0244 111.862 12.3141C111.865 12.5448 111.932 12.7702 112.056 12.9646C112.174 13.1679 112.324 13.3514 112.498 13.5085C113.083 13.2058 113.695 12.9597 114.326 12.7735C115.023 12.5699 115.746 12.4672 116.472 12.4685C117.244 12.4248 118.011 12.6239 118.666 13.0381C118.943 13.2511 119.163 13.5314 119.303 13.8527C119.444 14.1741 119.501 14.5261 119.47 14.8757V15.5152L115.595 15.8938C114.132 16.0408 113.008 16.4389 112.22 17.0882C111.427 17.7388 111.032 18.6723 111.032 19.8961C110.999 20.4953 111.12 21.093 111.384 21.6313C111.648 22.1696 112.045 22.6303 112.538 22.9686C113.545 23.6669 114.943 24.0148 116.732 24.0124C117.602 24.0232 118.47 23.9257 119.316 23.722C119.964 23.5709 120.591 23.3414 121.184 23.0385C121.467 22.8644 121.719 22.6446 121.93 22.3879ZM119.47 21.1751C119.146 21.369 118.797 21.5151 118.432 21.6088C117.877 21.7577 117.305 21.827 116.732 21.8146C115.752 21.8146 115.024 21.6419 114.538 21.289C114.306 21.1283 114.117 20.9115 113.989 20.6586C113.862 20.4056 113.799 20.1245 113.807 19.841C113.793 19.5786 113.844 19.3169 113.955 19.079C114.066 18.8411 114.234 18.6345 114.443 18.4775C115.017 18.1164 115.675 17.9147 116.351 17.8931L119.452 17.5881L119.47 21.1751Z" fill="white"/>
<path d="M127.52 8.26973C127.747 8.28144 127.974 8.24567 128.187 8.1647C128.399 8.08373 128.593 7.95931 128.756 7.79929C128.908 7.64651 129.028 7.46413 129.109 7.26322C129.189 7.06232 129.228 6.84708 129.223 6.63057C129.228 6.40799 129.187 6.1868 129.104 5.98056C129.021 5.77431 128.896 5.58736 128.739 5.43115C128.581 5.27493 128.393 5.15275 128.186 5.07208C127.98 4.99141 127.759 4.95395 127.538 4.96201C127.311 4.95406 127.084 4.993 126.872 5.07643C126.66 5.15986 126.468 5.28602 126.306 5.44714C126.15 5.60118 126.027 5.78553 125.944 5.98898C125.861 6.19243 125.82 6.41072 125.824 6.63057C125.819 6.84838 125.859 7.06478 125.943 7.266C126.026 7.46721 126.149 7.64883 126.306 7.79929C126.467 7.95464 126.658 8.07622 126.866 8.15698C127.074 8.23774 127.297 8.27606 127.52 8.26973Z" fill="white"/>
<path d="M127.407 10.4972C127.152 10.4947 126.897 10.5181 126.646 10.567C126.416 10.6111 126.237 10.6552 126.109 10.692V22.4822C126.089 22.6701 126.113 22.8601 126.181 23.0365C126.248 23.213 126.356 23.3707 126.497 23.4965C126.833 23.7143 127.23 23.8174 127.63 23.7906C127.886 23.7922 128.141 23.7638 128.39 23.706C128.621 23.6509 128.8 23.6031 128.931 23.5664V11.7982C128.953 11.6122 128.931 11.4237 128.868 11.2476C128.804 11.0716 128.701 10.9128 128.566 10.7839C128.221 10.5625 127.814 10.4617 127.407 10.4972Z" fill="white"/>
<path d="M143.013 11.4564C142.009 10.6478 140.621 10.2448 138.85 10.2472C137.906 10.2328 136.965 10.3567 136.056 10.6147C135.351 10.8115 134.673 11.0967 134.039 11.4637C133.711 11.6663 133.424 11.9294 133.194 12.2392C133.006 12.5481 132.914 12.9065 132.931 13.2683V22.4564C132.91 22.6442 132.935 22.8343 133.002 23.0107C133.07 23.1872 133.178 23.3449 133.318 23.4707C133.665 23.6903 134.072 23.7933 134.481 23.7647C134.737 23.7664 134.992 23.738 135.241 23.6802C135.472 23.6251 135.643 23.5773 135.753 23.5406V13.3344C136.177 13.0937 136.627 12.9026 137.095 12.7648C137.656 12.5986 138.239 12.5181 138.824 12.5259C139.582 12.4873 140.33 12.7132 140.941 13.1654C141.462 13.5917 141.724 14.2692 141.727 15.1978V22.4821C141.707 22.668 141.73 22.8558 141.793 23.0315C141.857 23.2072 141.959 23.3662 142.092 23.4965C142.435 23.7222 142.843 23.8258 143.251 23.7905C143.503 23.7906 143.755 23.7623 144.001 23.7059C144.238 23.6508 144.414 23.603 144.527 23.5663V15.0838C144.512 13.4692 144.008 12.26 143.013 11.4564Z" fill="white"/>
<path d="M78.7774 40.8893C78.7043 39.8234 78.6263 38.7343 78.5435 37.622C78.4594 36.5194 78.3716 35.4425 78.2802 34.4245C78.1888 33.4065 78.0975 32.5171 78.0024 31.7563C77.9074 30.9955 77.8269 30.4479 77.7538 30.1134C77.7216 29.943 77.6499 29.7827 77.5444 29.6454C77.439 29.5081 77.3028 29.3977 77.1469 29.3233C76.7407 29.1308 76.2942 29.04 75.8455 29.0586C75.5433 29.0603 75.242 29.0923 74.9462 29.1542C74.6933 29.202 74.4475 29.2823 74.215 29.3931C73.6983 30.5961 73.089 32.0662 72.3871 33.8034C71.6852 35.5406 70.9614 37.3439 70.2156 39.2133H70.1023C69.7367 38.3019 69.3419 37.3316 68.9287 36.2732C68.5156 35.2147 68.0952 34.1966 67.6712 33.1602C67.2471 32.1238 66.8194 31.1646 66.3953 30.2935C66.2396 29.8984 65.9581 29.5662 65.5947 29.349C65.1688 29.1269 64.6921 29.0216 64.2128 29.0439C63.7947 29.0308 63.3789 29.1111 62.9954 29.2792C62.7283 29.391 62.4813 29.5462 62.2643 29.7386C62.1911 30.7578 62.1083 31.8886 62.0157 33.1308C61.9243 34.3731 61.8292 35.63 61.7378 36.8979C61.6464 38.1659 61.5697 39.3714 61.5038 40.4997C61.438 41.628 61.3869 42.5983 61.3503 43.4068C61.3137 44.2154 61.2955 44.7556 61.2955 45.0349C61.2855 45.1975 61.3115 45.3602 61.3715 45.5114C61.4316 45.6627 61.5242 45.7987 61.6428 45.9096C61.9637 46.1315 62.3515 46.2341 62.7395 46.2C62.9843 46.2022 63.2289 46.1837 63.4707 46.1449C63.6598 46.1158 63.8459 46.0691 64.0263 46.0052C64.0995 44.7446 64.1653 43.5612 64.2201 42.4476C64.2749 41.334 64.3334 40.2424 64.3992 39.206C64.465 38.1696 64.5235 37.067 64.5784 35.924C64.6332 34.781 64.688 33.5571 64.7429 32.2488H64.8562C65.2437 33.2852 65.7506 34.5825 66.377 36.1408C67.0034 37.6991 67.7504 39.4608 68.618 41.4258C68.6713 41.5538 68.7505 41.6693 68.8505 41.7648C68.9506 41.8604 69.0694 41.9339 69.1993 41.9808C69.5171 42.0999 69.8545 42.1573 70.1936 42.1499C70.4811 42.1538 70.767 42.1065 71.0381 42.0102C71.2564 41.9331 71.4649 41.8307 71.6596 41.7052C72.5979 39.3677 73.3778 37.4578 73.9993 35.9755C74.6208 34.4931 75.1082 33.2791 75.4616 32.3333H75.5713C75.6274 33.2056 75.6871 34.3081 75.7504 35.641C75.8138 36.9739 75.8881 38.4526 75.9734 40.077C76.0539 41.6892 76.1416 43.348 76.2367 45.0533C76.2328 45.233 76.2753 45.4107 76.3598 45.5691C76.4444 45.7275 76.5682 45.8613 76.7192 45.9574C77.0217 46.1189 77.3602 46.1999 77.7026 46.1926C77.9718 46.1979 78.2405 46.1707 78.5032 46.1118C78.7285 46.0526 78.9431 45.9584 79.1394 45.8325C79.1394 45.3326 79.0809 44.6454 79.0151 43.7743C78.9493 42.9033 78.8505 41.9551 78.7774 40.8893Z" fill="white"/>
<path d="M91.7115 33.7842C90.7074 33.0492 89.3559 32.6817 87.6572 32.6817C86.9569 32.6806 86.258 32.7459 85.5698 32.8764C84.9624 32.9868 84.3715 33.1745 83.8113 33.4351C83.5381 33.5255 83.3002 33.7003 83.1316 33.9346C82.9629 34.1688 82.872 34.4506 82.8718 34.7398C82.8747 34.9717 82.9418 35.1982 83.0656 35.394C83.186 35.5959 83.335 35.7791 83.5079 35.9379C84.0926 35.6352 84.7047 35.389 85.3358 35.2029C86.0332 34.9997 86.7557 34.897 87.4817 34.8978C88.254 34.8537 89.0208 35.0528 89.6752 35.4675C89.95 35.6787 90.1673 35.9561 90.3073 36.274C90.4472 36.592 90.5052 36.9403 90.4758 37.2867V37.9262L86.6044 38.3158C85.142 38.4653 84.0173 38.8646 83.2301 39.5139C82.4429 40.1632 82.0456 41.0992 82.0383 42.3218C82.006 42.9212 82.128 43.5189 82.3924 44.0571C82.6569 44.5953 83.055 45.0559 83.5481 45.3943C84.5498 46.0889 85.95 46.4381 87.7376 46.4381C88.608 46.4477 89.4761 46.349 90.3223 46.1441C90.9727 45.9952 91.6025 45.7669 92.1977 45.4641C92.4808 45.2879 92.7338 45.067 92.9471 44.81C93.147 44.5224 93.2436 44.1751 93.2213 43.825V37.3161C93.2189 35.7015 92.7156 34.5242 91.7115 33.7842ZM90.4795 43.6008C90.1567 43.7954 89.8067 43.9404 89.4412 44.0308C88.8874 44.1816 88.315 44.2521 87.7413 44.2403C86.7652 44.2403 86.0341 44.0639 85.5478 43.7111C85.3154 43.5511 85.1266 43.3351 84.9989 43.0827C84.8711 42.8303 84.8085 42.5497 84.8167 42.2667C84.8028 42.0043 84.8536 41.7426 84.9646 41.5047C85.0756 41.2668 85.2433 41.0602 85.4528 40.9032C86.0259 40.5383 86.6866 40.3364 87.3648 40.3188L90.4612 40.0138L90.4795 43.6008Z" fill="white"/>
<path d="M102.928 32.6702C102 32.6633 101.074 32.7757 100.175 33.0047C99.4587 33.1765 98.7732 33.4579 98.1421 33.839C97.8027 34.0539 97.5074 34.332 97.272 34.6585C97.066 34.9879 96.964 35.3723 96.9796 35.7611V44.9125C96.9592 45.1003 96.9837 45.2904 97.0511 45.4668C97.1185 45.6433 97.2268 45.801 97.3671 45.9268C97.7143 46.1449 98.1213 46.2465 98.5296 46.2172C98.7854 46.22 99.0405 46.1929 99.29 46.1363C99.5203 46.0775 99.6922 46.0334 99.8018 45.9967V35.8162C100.291 35.5518 100.812 35.3517 101.352 35.2208C102.022 35.0547 102.709 34.9745 103.399 34.982C103.69 34.9818 103.98 34.9965 104.269 35.0261C104.506 35.0458 104.741 35.0777 104.975 35.1216C105.09 34.9822 105.179 34.8228 105.238 34.6512C105.303 34.4531 105.335 34.2458 105.333 34.0374C105.333 33.1284 104.531 32.6727 102.928 32.6702Z" fill="white"/>
<path d="M116.926 35.9527C117.268 35.6782 117.587 35.3758 117.88 35.0486C118.089 34.8063 118.203 34.4949 118.198 34.1739C118.203 33.9818 118.161 33.7914 118.076 33.6191C117.992 33.4469 117.867 33.298 117.712 33.1852C117.317 32.9164 116.845 32.7871 116.37 32.8177L110.62 38.4996V29.0726C110.64 28.8889 110.618 28.7028 110.554 28.5293C110.491 28.3557 110.388 28.1995 110.254 28.073C109.917 27.8579 109.519 27.7598 109.121 27.7937C108.861 27.7934 108.601 27.8167 108.346 27.8635C108.104 27.9113 107.922 27.9517 107.794 27.9884V44.8946C107.773 45.0824 107.798 45.2725 107.865 45.4489C107.933 45.6254 108.041 45.7831 108.181 45.9089C108.527 46.1276 108.933 46.2294 109.34 46.1993C109.597 46.202 109.853 46.1749 110.104 46.1184C110.334 46.0596 110.503 46.0155 110.616 45.9787V40.0102L115.511 45.1555C115.774 45.4627 116.076 45.7334 116.41 45.9604C116.694 46.1467 117.026 46.244 117.364 46.2397C117.568 46.2495 117.772 46.2148 117.961 46.1381C118.151 46.0613 118.321 45.9443 118.461 45.795C118.745 45.4499 118.906 45.019 118.918 44.5711L113.168 39.2641L116.926 35.9527Z" fill="white"/>
<path d="M130.035 33.3942C129.091 32.8937 128.036 32.6408 126.968 32.6591C126.117 32.6569 125.274 32.8114 124.478 33.1149C123.722 33.3993 123.033 33.84 122.457 34.4085C121.864 35.0082 121.407 35.7289 121.115 36.5218C120.778 37.4529 120.615 38.4383 120.633 39.4289C120.588 40.7684 120.893 42.0962 121.517 43.2806C122.082 44.3043 122.946 45.1291 123.992 45.6438C125.163 46.1972 126.446 46.469 127.739 46.4376C128.523 46.4484 129.305 46.3545 130.064 46.1583C130.661 46.0161 131.221 45.7508 131.71 45.3791C131.891 45.2568 132.042 45.0934 132.15 44.9019C132.258 44.7105 132.32 44.4963 132.331 44.2766C132.333 44.023 132.256 43.775 132.112 43.5673C131.963 43.3532 131.776 43.1688 131.56 43.0233C131.097 43.3711 130.582 43.6439 130.035 43.8319C129.353 44.0806 128.633 44.2051 127.908 44.1994C126.771 44.2567 125.651 43.902 124.753 43.1997C124.1 42.6246 123.653 41.8499 123.48 40.9946L131.615 39.8332C131.963 39.8024 132.292 39.6608 132.554 39.4289C132.675 39.2916 132.768 39.1308 132.825 38.9564C132.882 38.7819 132.903 38.5975 132.887 38.4146C132.903 37.3717 132.641 36.3435 132.126 35.4376C131.634 34.5728 130.909 33.8647 130.035 33.3942ZM123.323 38.907C123.367 37.6501 123.689 36.6762 124.34 35.9852C124.668 35.624 125.071 35.3384 125.519 35.1481C125.968 34.9578 126.452 34.8672 126.939 34.8827C127.37 34.8561 127.801 34.9202 128.206 35.0708C128.611 35.2215 128.98 35.4553 129.289 35.7574C129.847 36.3522 130.179 37.1247 130.229 37.9405L123.323 38.907Z" fill="white"/>
<path d="M138.696 38.7061V35.5931H142.282C142.42 35.5995 142.559 35.5767 142.688 35.526C142.817 35.4754 142.934 35.3981 143.031 35.2991C143.231 35.0539 143.33 34.7406 143.306 34.4244C143.305 34.2077 143.273 33.9922 143.21 33.7849C143.161 33.6188 143.091 33.4596 143.002 33.3108H138.688V30.5433C138.708 30.3613 138.685 30.1773 138.622 30.0057C138.558 29.8341 138.456 29.6797 138.323 29.5547C137.99 29.3381 137.596 29.2362 137.2 29.2644C136.94 29.2622 136.681 29.2856 136.425 29.3342C136.248 29.365 136.072 29.4067 135.899 29.4591V42.4732C135.899 43.8808 136.312 44.8915 137.131 45.5053C137.95 46.119 139.047 46.4204 140.421 46.4204C141.173 46.4689 141.924 46.31 142.593 45.961C142.807 45.8526 142.987 45.6882 143.116 45.4851C143.245 45.2819 143.317 45.0477 143.324 44.807C143.331 44.5776 143.285 44.3498 143.189 44.1417C143.102 43.9677 142.99 43.8078 142.856 43.6676C142.56 43.8132 142.248 43.9253 141.927 44.0021C141.598 44.0906 141.259 44.1375 140.918 44.1417C140.349 44.1724 139.783 44.0261 139.299 43.7228C138.904 43.4483 138.707 42.9669 138.707 42.2784V38.7171L138.696 38.7061Z" fill="white"/>
<path d="M155.055 39.9151C154.4 39.256 153.381 38.766 151.999 38.445L150.325 38.0407C149.846 37.9552 149.398 37.7434 149.027 37.427C148.901 37.3049 148.802 37.158 148.735 36.9954C148.668 36.8329 148.636 36.6582 148.64 36.4824C148.636 36.2425 148.699 36.0064 148.821 35.8001C148.943 35.5939 149.119 35.4255 149.33 35.3137C149.892 35.0127 150.523 34.8692 151.158 34.8984C151.657 34.8958 152.155 34.9563 152.639 35.0785C153.063 35.1847 153.479 35.3235 153.882 35.4938C154.185 35.6221 154.478 35.7758 154.756 35.9532C154.965 35.8369 155.137 35.6636 155.253 35.4534C155.38 35.2297 155.447 34.9762 155.447 34.7183C155.439 34.5121 155.384 34.3104 155.286 34.1293C155.187 33.9481 155.048 33.7924 154.88 33.6746C154.414 33.3235 153.882 33.0732 153.315 32.9395C152.556 32.7518 151.776 32.6629 150.994 32.6749C149.334 32.6749 148.066 33.0424 147.188 33.7775C146.777 34.098 146.445 34.5093 146.217 34.9797C145.99 35.45 145.873 35.9667 145.876 36.4898C145.859 36.9219 145.927 37.3532 146.076 37.7588C146.225 38.1644 146.453 38.5362 146.746 38.853C147.326 39.4655 148.235 39.9102 149.473 40.1871L151.436 40.6906C151.933 40.7917 152.396 41.0209 152.778 41.3558C152.929 41.5034 153.047 41.6809 153.126 41.877C153.204 42.0732 153.242 42.2837 153.235 42.4951C153.235 43.6271 152.359 44.1931 150.606 44.1931C149.821 44.2085 149.04 44.066 148.31 43.7741C147.69 43.5215 147.097 43.205 146.541 42.8296C146.306 42.974 146.11 43.1748 145.971 43.4139C145.836 43.6512 145.765 43.9198 145.766 44.1931C145.766 44.8032 146.219 45.3324 147.133 45.7771C148.255 46.264 149.47 46.4925 150.69 46.446C152.423 46.446 153.745 46.0981 154.657 45.4022C155.104 45.0667 155.462 44.6264 155.701 44.1197C155.94 43.6131 156.052 43.0553 156.028 42.4951C156.049 42.0212 155.973 41.5481 155.806 41.1045C155.639 40.6609 155.383 40.2562 155.055 39.9151Z" fill="white"/>
</svg>
