<svg width="158" height="56" viewBox="0 0 158 56" fill="none" xmlns="http://www.w3.org/2000/svg">
<path d="M21.3194 47.5924C19.5272 47.0779 17.8253 46.2869 16.2745 45.2475L20.7272 39.8155L19.6853 39.1062C18.5 38.301 17.4922 37.2592 16.7246 36.0456C15.957 34.832 15.446 33.4726 15.2235 32.052C15.0009 30.6313 15.0716 29.1798 15.431 27.7878C15.7904 26.3958 16.4309 25.093 17.3127 23.9606L17.9854 23.0895L17.1482 22.3545L12.6698 18.6792C13.8367 17.3059 15.2021 16.1165 16.7205 15.151L15.4994 13.2031C13.7744 14.2979 12.2239 15.6485 10.9004 17.2091L6.96316 13.9382L5.50085 15.717L9.50028 19.0247C6.92106 22.8757 5.74336 27.5038 6.1662 32.1269L0.346191 32.6929L0.565539 34.9863L6.49522 34.4093C7.3677 38.7663 9.6523 42.7097 12.9916 45.6224L8.8788 50.6538L10.6482 52.1239L14.8194 47.0337C16.6172 48.2683 18.6008 49.2039 20.6943 49.8048L21.3194 47.5924ZM11.288 20.5169L14.856 23.457C13.3223 25.8339 12.6224 28.6577 12.8673 31.4801L8.48032 31.9101C8.11396 27.9029 9.1032 23.8887 11.288 20.5169V20.5169ZM8.79471 34.1887L13.2328 33.7477C13.9137 36.2942 15.3634 38.5657 17.3822 40.2492L14.4575 43.8399C11.586 41.3193 9.60006 37.9346 8.79471 34.1887V34.1887Z" fill="white"/>
<path d="M27.8559 47.9297L25.8379 45.8753C33.7234 38.0286 45.9886 38.6203 46.5077 38.6497L46.3469 41.5238L46.4273 40.0868L46.3505 41.5238C46.2335 41.5238 34.8202 40.9945 27.8559 47.9297Z" fill="#09D4DA"/>
<path d="M28.7807 54.5751L26.4849 52.8588C29.0413 49.4625 32.668 47.0383 36.7722 45.9824L37.3608 48.7977C33.9479 49.7254 30.9331 51.7554 28.7807 54.5751Z" fill="#09D4DA"/>
<path d="M25.6624 42.267C25.5059 42.2674 25.3504 42.2426 25.2018 42.1935C24.9084 42.0935 24.6553 41.9003 24.4805 41.6431C24.3058 41.3859 24.2189 41.0786 24.233 40.7675C24.7192 29.9366 22.2881 20.4655 20.1787 14.4234L22.8803 13.4641C25.6188 21.1952 27.0701 29.3274 27.1759 37.5333C30.2979 35.3281 36.5201 32.4394 47.6483 32.5791C43.1828 23.9775 36.7456 16.5675 28.8685 10.9613L30.5136 8.60547C45.4402 19.1461 51.0299 32.965 51.2602 33.5493C51.3485 33.7732 51.3795 34.0158 51.3505 34.2548C51.3214 34.4939 51.2332 34.7218 51.094 34.9178C50.9547 35.1137 50.7688 35.2715 50.5532 35.3765C50.3377 35.4816 50.0993 35.5307 49.86 35.5193C31.9211 34.6592 26.898 41.5761 26.8505 41.6459C26.7178 41.8389 26.5401 41.9963 26.3331 42.1045C26.126 42.2128 25.8958 42.2686 25.6624 42.267Z" fill="#09D4DA"/>
<path d="M19.4879 12.5709C18.2578 9.35359 16.8556 6.20544 15.2874 3.14027C15.1496 2.87456 15.0979 2.57221 15.1395 2.2755C15.1811 1.9788 15.314 1.70259 15.5194 1.48552C15.7249 1.26845 15.9927 1.12137 16.2854 1.06485C16.5781 1.00834 16.881 1.04522 17.1518 1.17034C21.0619 2.97205 24.8577 5.01446 28.5177 7.28594L26.9859 9.71895C26.9457 9.69322 23.9114 7.77108 19.6743 5.59533C21.1878 8.90305 22.1347 11.4316 22.1859 11.5713L19.4879 12.5709Z" fill="white"/>
<path d="M66.1651 24.6914C66.7475 24.5307 67.3057 24.2921 67.8249 23.9821C68.0915 23.8409 68.3199 23.6366 68.4902 23.3867C68.6167 23.1813 68.6838 22.9446 68.684 22.7031C68.6891 22.4053 68.6008 22.1134 68.4317 21.8688C68.2856 21.6471 68.0872 21.4653 67.8541 21.3396C67.3259 21.7082 66.7535 22.0083 66.1505 22.2327C65.3822 22.4995 64.5721 22.6241 63.7596 22.6002C62.9991 22.6316 62.2403 22.5048 61.5307 22.2278C60.8212 21.9508 60.1761 21.5296 59.6359 20.9904C58.5855 19.9124 58.0603 18.3087 58.0603 16.1795C58.0219 14.9511 58.2724 13.731 58.7914 12.6182C59.2273 11.7222 59.91 10.9708 60.7582 10.4535C61.6332 9.95074 62.6277 9.69666 63.6353 9.71847C64.4487 9.69011 65.259 9.83152 66.0153 10.1338C66.5898 10.383 67.1374 10.6909 67.6494 11.0526C67.8977 10.9319 68.1116 10.7498 68.2709 10.5233C68.4406 10.2994 68.533 10.0258 68.5341 9.7442C68.5181 9.51319 68.4515 9.2886 68.339 9.08654C68.2265 8.88448 68.0709 8.70995 67.8834 8.57547C67.3427 8.15041 66.7203 7.84257 66.0555 7.67136C65.1639 7.42499 64.2418 7.30864 63.3173 7.32589C61.8913 7.31456 60.4847 7.65798 59.2228 8.32556C57.9555 9.00697 56.9099 10.0403 56.2104 11.3025C55.4078 12.8046 55.0155 14.4938 55.0735 16.1979C55.0735 18.158 55.4476 19.7935 56.1958 21.1044C56.8874 22.3633 57.936 23.3868 59.2082 24.0446C60.526 24.707 61.983 25.041 63.4562 25.0185C64.3702 25.0417 65.2826 24.9315 66.1651 24.6914Z" fill="white"/>
<path d="M82.1517 15.8895C82.1517 14.2748 81.6496 13.0975 80.6455 12.3576C79.6414 11.6176 78.2912 11.2501 76.5949 11.255C75.8932 11.252 75.1929 11.3172 74.5038 11.4498C73.8976 11.5584 73.3078 11.7449 72.749 12.0047C72.4749 12.0949 72.2362 12.2701 72.0674 12.5052C71.8986 12.7403 71.8083 13.0232 71.8094 13.3131C71.8112 13.5435 71.877 13.7689 71.9995 13.9636C72.1233 14.1652 72.2775 14.3462 72.4565 14.5002C73.0412 14.1975 73.6533 13.9513 74.2844 13.7652C74.9804 13.5616 75.7018 13.4589 76.4267 13.4601C77.1989 13.4175 77.9652 13.6165 78.6202 14.0298C78.8966 14.2436 79.115 14.5241 79.2549 14.8454C79.3949 15.1666 79.4519 15.5181 79.4208 15.8674V16.5069L75.5493 16.8965C74.087 17.0435 72.9622 17.4416 72.175 18.0909C71.3598 18.7378 70.9942 19.6713 70.9942 20.8841C70.9608 21.4833 71.0819 22.081 71.3458 22.6193C71.6097 23.1576 72.0074 23.6182 72.5004 23.9566C73.5069 24.6549 74.9035 25.0028 76.6899 25.0004C77.5613 25.0112 78.4306 24.9136 79.2782 24.71C79.9259 24.5583 80.5531 24.3288 81.1463 24.0264C81.4222 23.8492 81.6689 23.6297 81.8775 23.3759C82.0773 23.087 82.1739 22.7385 82.1517 22.3873V15.8895ZM79.4025 22.1741C79.0803 22.3681 78.7318 22.5142 78.3679 22.6078C77.8126 22.7569 77.239 22.8262 76.6643 22.8136C75.6882 22.8136 74.9607 22.6409 74.4709 22.2881C74.2381 22.1275 74.0492 21.9108 73.9215 21.6578C73.7937 21.4048 73.7312 21.1236 73.7397 20.84C73.7258 20.5776 73.7766 20.3159 73.8876 20.078C73.9986 19.8402 74.1663 19.6335 74.3758 19.4765C74.9493 19.1154 75.6078 18.9137 76.2841 18.8921L79.3806 18.5871L79.4025 22.1741Z" fill="white"/>
<path d="M98.1423 18.0871C98.1987 16.7271 97.888 15.3771 97.243 14.1803C96.6833 13.2062 95.8381 12.4297 94.8229 11.9568C93.7359 11.4679 92.5551 11.2257 91.3645 11.2474C90.5173 11.2365 89.6732 11.3529 88.8603 11.5929C88.2021 11.7871 87.567 12.0533 86.9666 12.3868C86.6443 12.5684 86.3659 12.8194 86.1513 13.1218C85.9825 13.4227 85.9014 13.7653 85.9174 14.1104V28.5174C85.8999 28.7029 85.9259 28.8899 85.9932 29.0634C86.0605 29.237 86.1672 29.3923 86.3049 29.5171C86.6472 29.7444 87.0546 29.8516 87.4638 29.8221C87.7189 29.8248 87.9737 29.8014 88.2242 29.7523C88.3972 29.7214 88.5681 29.6797 88.736 29.6273V24.3386C89.0236 24.4727 89.3205 24.5857 89.6243 24.6768C90.305 24.8881 91.0141 24.9922 91.7264 24.9855C92.8819 25.0074 94.0253 24.745 95.0568 24.221C96.0278 23.7014 96.8165 22.8944 97.3161 21.9093C97.9001 20.723 98.1839 19.4101 98.1423 18.0871ZM94.2014 21.5896C93.8272 21.9639 93.3792 22.2554 92.8862 22.4453C92.3932 22.6352 91.8661 22.7193 91.3389 22.6921C90.6918 22.7133 90.0483 22.5877 89.4562 22.3246C89.2035 22.2055 88.9592 22.0692 88.725 21.9167V14.2207C89.0893 14.0412 89.4641 13.8841 89.8473 13.7503C90.3329 13.5891 90.8424 13.5133 91.3535 13.5261C92.0335 13.5182 92.7058 13.6705 93.3167 13.9708C93.9259 14.2866 94.42 14.7884 94.7278 15.4041C95.117 16.2423 95.2976 17.1631 95.2542 18.0871C95.2615 19.6821 94.9106 20.8496 94.2014 21.5896Z" fill="white"/>
<path d="M108.737 23.3726C108.742 23.1419 108.695 22.913 108.598 22.7037C108.514 22.5293 108.402 22.3702 108.265 22.2333C107.969 22.376 107.659 22.4868 107.34 22.5641C107.011 22.6542 106.672 22.7011 106.331 22.7037C105.762 22.7343 105.197 22.5894 104.712 22.2884C104.501 22.1159 104.335 21.8931 104.231 21.6403C104.127 21.3874 104.088 21.1125 104.116 20.8404V14.1662H107.713C107.848 14.1714 107.983 14.1482 108.109 14.0983C108.235 14.0483 108.349 13.9725 108.444 13.8758C108.647 13.6306 108.747 13.3154 108.722 12.9974C108.729 12.7818 108.704 12.5664 108.649 12.3579C108.6 12.1927 108.53 12.0346 108.441 11.8875H104.116V9.12374C104.135 8.94173 104.112 8.75765 104.049 8.58606C103.986 8.41447 103.883 8.26008 103.75 8.1351C103.419 7.91753 103.026 7.8155 102.632 7.84475C102.372 7.84244 102.112 7.86583 101.857 7.91458C101.682 7.94053 101.508 7.97611 101.337 8.02117V21.0352C101.337 22.4465 101.748 23.4572 102.569 24.0673C103.388 24.6774 104.481 24.9861 105.86 24.9861C106.611 25.0327 107.362 24.8739 108.031 24.5267C108.24 24.4146 108.415 24.2486 108.539 24.0458C108.663 23.843 108.732 23.6106 108.737 23.3726Z" fill="white"/>
<path d="M121.93 23.387C122.133 23.0992 122.231 22.7502 122.208 22.3983V15.8895C122.208 14.2748 121.706 13.0975 120.702 12.3576C119.698 11.6176 118.346 11.2501 116.648 11.255C115.947 11.252 115.248 11.3172 114.56 11.4498C113.953 11.5578 113.362 11.7444 112.802 12.0047C112.528 12.0959 112.29 12.2714 112.122 12.5062C111.953 12.7411 111.862 13.0234 111.862 13.3131C111.865 13.5439 111.932 13.7692 112.056 13.9636C112.174 14.1669 112.324 14.3504 112.498 14.5076C113.083 14.2048 113.695 13.9587 114.326 13.7725C115.023 13.5689 115.746 13.4662 116.472 13.4675C117.244 13.4238 118.011 13.6229 118.666 14.0371C118.943 14.2501 119.163 14.5304 119.303 14.8517C119.444 15.1731 119.501 15.5251 119.47 15.8748V16.5143L115.595 16.8928C114.132 17.0398 113.008 17.438 112.22 18.0873C111.427 18.7378 111.032 19.6713 111.032 20.8951C110.999 21.4943 111.12 22.092 111.384 22.6303C111.648 23.1686 112.045 23.6293 112.538 23.9676C113.545 24.6659 114.943 25.0139 116.732 25.0114C117.602 25.0222 118.47 24.9247 119.316 24.7211C119.964 24.57 120.591 24.3404 121.184 24.0375C121.467 23.8634 121.719 23.6436 121.93 23.387ZM119.47 22.1741C119.146 22.3681 118.797 22.5141 118.432 22.6078C117.877 22.7567 117.305 22.826 116.732 22.8136C115.752 22.8136 115.024 22.6409 114.538 22.2881C114.306 22.1273 114.117 21.9106 113.989 21.6576C113.862 21.4047 113.799 21.1236 113.807 20.84C113.793 20.5776 113.844 20.3159 113.955 20.078C114.066 19.8402 114.234 19.6335 114.443 19.4765C115.017 19.1154 115.675 18.9137 116.351 18.8921L119.452 18.5871L119.47 22.1741Z" fill="white"/>
<path d="M127.52 9.26973C127.747 9.28144 127.974 9.24567 128.187 9.1647C128.399 9.08373 128.593 8.95931 128.756 8.79929C128.908 8.64651 129.028 8.46413 129.109 8.26322C129.189 8.06232 129.228 7.84708 129.223 7.63057C129.228 7.40799 129.187 7.1868 129.104 6.98056C129.021 6.77431 128.896 6.58736 128.739 6.43115C128.581 6.27493 128.393 6.15275 128.186 6.07208C127.98 5.99141 127.759 5.95395 127.538 5.96201C127.311 5.95406 127.084 5.993 126.872 6.07643C126.66 6.15986 126.468 6.28602 126.306 6.44714C126.15 6.60118 126.027 6.78553 125.944 6.98898C125.861 7.19243 125.82 7.41072 125.824 7.63057C125.819 7.84838 125.859 8.06478 125.943 8.266C126.026 8.46721 126.149 8.64883 126.306 8.79929C126.467 8.95464 126.658 9.07622 126.866 9.15698C127.074 9.23774 127.297 9.27606 127.52 9.26973Z" fill="white"/>
<path d="M127.407 11.4982C127.152 11.4957 126.897 11.5191 126.646 11.568C126.416 11.6121 126.237 11.6562 126.109 11.693V23.4831C126.089 23.671 126.113 23.8611 126.181 24.0375C126.248 24.214 126.356 24.3717 126.497 24.4975C126.833 24.7153 127.23 24.8184 127.63 24.7915C127.886 24.7932 128.141 24.7648 128.39 24.707C128.621 24.6519 128.8 24.6041 128.931 24.5673V12.7992C128.953 12.6132 128.931 12.4247 128.868 12.2486C128.804 12.0726 128.701 11.9138 128.566 11.7849C128.221 11.5635 127.814 11.4627 127.407 11.4982Z" fill="white"/>
<path d="M143.013 12.4564C142.009 11.6478 140.621 11.2448 138.85 11.2472C137.906 11.2328 136.965 11.3567 136.056 11.6147C135.351 11.8115 134.673 12.0967 134.039 12.4637C133.711 12.6663 133.424 12.9294 133.194 13.2392C133.006 13.5481 132.914 13.9065 132.931 14.2683V23.4564C132.91 23.6442 132.935 23.8343 133.002 24.0107C133.07 24.1872 133.178 24.3449 133.318 24.4707C133.665 24.6903 134.072 24.7933 134.481 24.7647C134.737 24.7664 134.992 24.738 135.241 24.6802C135.472 24.6251 135.643 24.5773 135.753 24.5406V14.3344C136.177 14.0937 136.627 13.9026 137.095 13.7648C137.656 13.5986 138.239 13.5181 138.824 13.5259C139.582 13.4873 140.33 13.7132 140.941 14.1654C141.462 14.5917 141.724 15.2692 141.727 16.1978V23.4821C141.707 23.668 141.73 23.8558 141.793 24.0315C141.857 24.2072 141.959 24.3662 142.092 24.4965C142.435 24.7222 142.843 24.8258 143.251 24.7905C143.503 24.7906 143.755 24.7623 144.001 24.7059C144.238 24.6508 144.414 24.603 144.527 24.5663V16.0838C144.512 14.4692 144.008 13.26 143.013 12.4564Z" fill="white"/>
<path d="M78.7774 41.8883C78.7043 40.8225 78.6263 39.7334 78.5435 38.621C78.4594 37.5184 78.3716 36.4416 78.2802 35.4235C78.1888 34.4055 78.0975 33.5161 78.0024 32.7553C77.9074 31.9945 77.8269 31.4469 77.7538 31.1125C77.7216 30.9421 77.6499 30.7817 77.5444 30.6444C77.439 30.5071 77.3028 30.3967 77.1469 30.3223C76.7407 30.1298 76.2942 30.039 75.8455 30.0577C75.5433 30.0593 75.242 30.0913 74.9462 30.1532C74.6933 30.2011 74.4475 30.2813 74.215 30.3921C73.6983 31.5952 73.089 33.0652 72.3871 34.8024C71.6852 36.5396 70.9614 38.3429 70.2156 40.2124H70.1023C69.7367 39.3009 69.3419 38.3306 68.9287 37.2722C68.5156 36.2137 68.0952 35.1957 67.6712 34.1592C67.2471 33.1228 66.8194 32.1636 66.3953 31.2926C66.2396 30.8974 65.9581 30.5652 65.5947 30.348C65.1688 30.1259 64.6921 30.0207 64.2128 30.043C63.7947 30.0298 63.3789 30.1102 62.9954 30.2782C62.7283 30.39 62.4813 30.5452 62.2643 30.7376C62.1911 31.7569 62.1083 32.8876 62.0157 34.1298C61.9243 35.3721 61.8292 36.629 61.7378 37.897C61.6464 39.1649 61.5697 40.3704 61.5038 41.4987C61.438 42.627 61.3869 43.5973 61.3503 44.4058C61.3137 45.2144 61.2955 45.7546 61.2955 46.034C61.2855 46.1965 61.3115 46.3592 61.3715 46.5105C61.4316 46.6617 61.5242 46.7977 61.6428 46.9087C61.9637 47.1305 62.3515 47.2331 62.7395 47.199C62.9843 47.2012 63.2289 47.1827 63.4707 47.1439C63.6598 47.1149 63.8459 47.0681 64.0263 47.0042C64.0995 45.7436 64.1653 44.5602 64.2201 43.4466C64.2749 42.333 64.3334 41.2414 64.3992 40.205C64.465 39.1686 64.5235 38.066 64.5784 36.923C64.6332 35.78 64.688 34.5562 64.7429 33.2478H64.8562C65.2437 34.2842 65.7506 35.5816 66.377 37.1399C67.0034 38.6982 67.7504 40.4598 68.618 42.4249C68.6713 42.5529 68.7505 42.6683 68.8505 42.7638C68.9506 42.8594 69.0694 42.9329 69.1993 42.9798C69.5171 43.0989 69.8545 43.1563 70.1936 43.1489C70.4811 43.1528 70.767 43.1055 71.0381 43.0092C71.2564 42.9321 71.4649 42.8297 71.6596 42.7042C72.5979 40.3667 73.3778 38.4568 73.9993 36.9745C74.6208 35.4921 75.1082 34.2781 75.4616 33.3323H75.5713C75.6274 34.2046 75.6871 35.3071 75.7504 36.64C75.8138 37.9729 75.8881 39.4516 75.9734 41.0761C76.0539 42.6883 76.1416 44.347 76.2367 46.0523C76.2328 46.2321 76.2753 46.4097 76.3598 46.5681C76.4444 46.7265 76.5682 46.8603 76.7192 46.9564C77.0217 47.1179 77.3602 47.1989 77.7026 47.1917C77.9718 47.1969 78.2405 47.1697 78.5032 47.1108C78.7285 47.0517 78.9431 46.9574 79.1394 46.8315C79.1394 46.3317 79.0809 45.6444 79.0151 44.7734C78.9493 43.9023 78.8505 42.9541 78.7774 41.8883Z" fill="white"/>
<path d="M91.7115 34.7842C90.7074 34.0492 89.3559 33.6817 87.6572 33.6817C86.9569 33.6806 86.258 33.7459 85.5698 33.8764C84.9624 33.9868 84.3715 34.1745 83.8113 34.4351C83.5381 34.5255 83.3002 34.7003 83.1316 34.9346C82.9629 35.1688 82.872 35.4506 82.8718 35.7398C82.8747 35.9717 82.9418 36.1982 83.0656 36.394C83.186 36.5959 83.335 36.7791 83.5079 36.9379C84.0926 36.6352 84.7047 36.389 85.3358 36.2029C86.0332 35.9997 86.7557 35.897 87.4817 35.8978C88.254 35.8537 89.0208 36.0528 89.6752 36.4675C89.95 36.6787 90.1673 36.9561 90.3073 37.274C90.4472 37.592 90.5052 37.9403 90.4758 38.2867V38.9262L86.6044 39.3158C85.142 39.4653 84.0173 39.8646 83.2301 40.5139C82.4429 41.1632 82.0456 42.0992 82.0383 43.3218C82.006 43.9212 82.128 44.5189 82.3924 45.0571C82.6569 45.5953 83.055 46.0559 83.5481 46.3943C84.5498 47.0889 85.95 47.4381 87.7376 47.4381C88.608 47.4477 89.4761 47.349 90.3223 47.1441C90.9727 46.9952 91.6025 46.7669 92.1977 46.4641C92.4808 46.2879 92.7338 46.067 92.9471 45.81C93.147 45.5224 93.2436 45.1751 93.2213 44.825V38.3161C93.2189 36.7015 92.7156 35.5242 91.7115 34.7842ZM90.4795 44.6008C90.1567 44.7954 89.8067 44.9404 89.4412 45.0308C88.8874 45.1816 88.315 45.2521 87.7413 45.2403C86.7652 45.2403 86.0341 45.0639 85.5478 44.7111C85.3154 44.5511 85.1266 44.3351 84.9989 44.0827C84.8711 43.8303 84.8085 43.5497 84.8167 43.2667C84.8028 43.0043 84.8536 42.7426 84.9646 42.5047C85.0756 42.2668 85.2433 42.0602 85.4528 41.9032C86.0259 41.5383 86.6866 41.3364 87.3648 41.3188L90.4612 41.0138L90.4795 44.6008Z" fill="white"/>
<path d="M102.928 33.6702C102 33.6633 101.074 33.7757 100.175 34.0047C99.4588 34.1765 98.7732 34.4579 98.1422 34.839C97.8028 35.0539 97.5075 35.332 97.2721 35.6585C97.066 35.9879 96.9641 36.3723 96.9796 36.7611V45.9125C96.9592 46.1003 96.9838 46.2904 97.0512 46.4668C97.1186 46.6433 97.2269 46.801 97.3671 46.9268C97.7143 47.1449 98.1214 47.2465 98.5297 47.2172C98.7854 47.22 99.0406 47.1929 99.2901 47.1363C99.5204 47.0775 99.6922 47.0334 99.8019 46.9967V36.8162C100.291 36.5518 100.812 36.3517 101.352 36.2208C102.022 36.0547 102.709 35.9745 103.399 35.982C103.69 35.9818 103.98 35.9965 104.269 36.0261C104.506 36.0458 104.741 36.0777 104.975 36.1216C105.09 35.9822 105.179 35.8228 105.238 35.6512C105.303 35.4531 105.335 35.2458 105.333 35.0374C105.333 34.1284 104.531 33.6727 102.928 33.6702Z" fill="white"/>
<path d="M116.926 36.9527C117.268 36.6782 117.587 36.3758 117.88 36.0486C118.089 35.8063 118.203 35.4949 118.198 35.1739C118.203 34.9818 118.161 34.7914 118.076 34.6191C117.992 34.4469 117.867 34.298 117.712 34.1852C117.317 33.9164 116.845 33.7871 116.37 33.8177L110.62 39.4996V30.0726C110.64 29.8889 110.618 29.7028 110.554 29.5293C110.491 29.3557 110.388 29.1995 110.254 29.073C109.917 28.8579 109.519 28.7598 109.121 28.7937C108.861 28.7934 108.601 28.8167 108.346 28.8635C108.104 28.9113 107.922 28.9517 107.794 28.9884V45.8946C107.773 46.0824 107.798 46.2725 107.865 46.4489C107.933 46.6254 108.041 46.7831 108.181 46.9089C108.527 47.1276 108.933 47.2294 109.34 47.1993C109.597 47.202 109.853 47.1749 110.104 47.1184C110.334 47.0596 110.503 47.0155 110.616 46.9787V41.0102L115.511 46.1555C115.774 46.4627 116.076 46.7334 116.41 46.9604C116.694 47.1467 117.026 47.244 117.364 47.2397C117.568 47.2495 117.772 47.2148 117.961 47.1381C118.151 47.0613 118.321 46.9443 118.461 46.795C118.745 46.4499 118.906 46.019 118.918 45.5711L113.168 40.2641L116.926 36.9527Z" fill="white"/>
<path d="M130.035 34.3942C129.091 33.8937 128.036 33.6408 126.968 33.6591C126.118 33.6569 125.274 33.8114 124.479 34.1149C123.722 34.3993 123.033 34.84 122.457 35.4085C121.864 36.0082 121.407 36.7289 121.115 37.5218C120.779 38.4529 120.615 39.4383 120.633 40.4289C120.588 41.7684 120.893 43.0962 121.517 44.2806C122.082 45.3043 122.946 46.1291 123.992 46.6438C125.163 47.1972 126.446 47.469 127.739 47.4376C128.523 47.4484 129.305 47.3545 130.065 47.1583C130.661 47.0161 131.221 46.7508 131.71 46.3791C131.892 46.2568 132.043 46.0934 132.15 45.9019C132.258 45.7105 132.32 45.4963 132.331 45.2766C132.333 45.023 132.256 44.775 132.112 44.5673C131.963 44.3532 131.776 44.1688 131.56 44.0233C131.097 44.3711 130.582 44.6439 130.035 44.8319C129.353 45.0806 128.633 45.2051 127.908 45.1994C126.771 45.2567 125.651 44.902 124.753 44.1997C124.1 43.6246 123.653 42.8499 123.48 41.9946L131.615 40.8332C131.963 40.8024 132.292 40.6608 132.554 40.4289C132.676 40.2916 132.768 40.1308 132.825 39.9564C132.882 39.7819 132.903 39.5975 132.887 39.4146C132.903 38.3717 132.641 37.3435 132.126 36.4376C131.634 35.5728 130.909 34.8647 130.035 34.3942ZM123.323 39.907C123.367 38.6501 123.689 37.6762 124.34 36.9852C124.668 36.624 125.071 36.3384 125.519 36.1481C125.968 35.9578 126.452 35.8672 126.939 35.8827C127.37 35.8561 127.801 35.9202 128.206 36.0708C128.611 36.2215 128.98 36.4553 129.29 36.7574C129.847 37.3522 130.179 38.1247 130.229 38.9405L123.323 39.907Z" fill="white"/>
<path d="M138.696 39.7051V36.5922H142.282C142.42 36.5986 142.559 36.5757 142.688 36.5251C142.817 36.4744 142.934 36.3971 143.031 36.2981C143.231 36.0529 143.33 35.7396 143.306 35.4234C143.305 35.2067 143.273 34.9912 143.21 34.7839C143.161 34.6178 143.091 34.4586 143.002 34.3098H138.688V31.5424C138.708 31.3604 138.685 31.1763 138.622 31.0047C138.558 30.8331 138.456 30.6787 138.323 30.5537C137.99 30.3371 137.596 30.2352 137.2 30.2634C136.94 30.2613 136.681 30.2846 136.425 30.3332C136.248 30.364 136.072 30.4058 135.899 30.4582V43.4722C135.899 44.8798 136.312 45.8905 137.131 46.5043C137.95 47.118 139.047 47.4194 140.421 47.4194C141.173 47.4679 141.924 47.309 142.593 46.96C142.807 46.8516 142.987 46.6872 143.116 46.4841C143.245 46.281 143.317 46.0467 143.324 45.806C143.331 45.5767 143.285 45.3489 143.189 45.1408C143.102 44.9667 142.99 44.8068 142.856 44.6667C142.56 44.8122 142.248 44.9244 141.927 45.0011C141.598 45.0897 141.259 45.1366 140.918 45.1408C140.349 45.1714 139.783 45.0251 139.299 44.7218C138.904 44.4474 138.707 43.9659 138.707 43.2774V39.7161L138.696 39.7051Z" fill="white"/>
<path d="M155.055 40.9151C154.4 40.256 153.381 39.766 151.999 39.445L150.325 39.0407C149.846 38.9552 149.398 38.7434 149.027 38.427C148.901 38.3049 148.802 38.158 148.735 37.9954C148.668 37.8329 148.636 37.6582 148.64 37.4824C148.636 37.2425 148.699 37.0064 148.821 36.8001C148.943 36.5939 149.119 36.4255 149.33 36.3137C149.892 36.0127 150.523 35.8692 151.158 35.8984C151.657 35.8958 152.155 35.9563 152.639 36.0785C153.063 36.1847 153.479 36.3235 153.882 36.4938C154.185 36.6221 154.478 36.7758 154.756 36.9532C154.965 36.8369 155.137 36.6636 155.253 36.4534C155.38 36.2297 155.447 35.9762 155.447 35.7183C155.439 35.5121 155.384 35.3104 155.286 35.1293C155.187 34.9481 155.048 34.7924 154.88 34.6746C154.415 34.3235 153.882 34.0732 153.315 33.9395C152.556 33.7518 151.776 33.6629 150.994 33.6749C149.334 33.6749 148.066 34.0424 147.188 34.7775C146.777 35.098 146.445 35.5093 146.217 35.9797C145.99 36.45 145.873 36.9667 145.876 37.4898C145.859 37.9219 145.927 38.3532 146.076 38.7588C146.225 39.1644 146.453 39.5362 146.746 39.853C147.326 40.4655 148.235 40.9102 149.473 41.1871L151.436 41.6906C151.933 41.7917 152.396 42.0209 152.778 42.3558C152.929 42.5034 153.047 42.6809 153.126 42.877C153.205 43.0732 153.242 43.2837 153.235 43.4951C153.235 44.6271 152.359 45.1931 150.606 45.1931C149.821 45.2085 149.04 45.066 148.311 44.7741C147.69 44.5215 147.097 44.205 146.541 43.8296C146.306 43.974 146.11 44.1748 145.971 44.4139C145.836 44.6512 145.765 44.9198 145.766 45.1931C145.766 45.8032 146.219 46.3324 147.133 46.7771C148.255 47.264 149.47 47.4925 150.69 47.446C152.423 47.446 153.745 47.0981 154.657 46.4022C155.104 46.0667 155.462 45.6264 155.701 45.1197C155.94 44.6131 156.052 44.0553 156.028 43.4951C156.049 43.0212 155.973 42.5481 155.806 42.1045C155.639 41.6609 155.383 41.2562 155.055 40.9151Z" fill="white"/>
</svg>
