<svg width="9" height="6" viewBox="0 0 9 6" fill="none" xmlns="http://www.w3.org/2000/svg">
<path d="M0.80791 2.07366C0.612647 1.8784 0.597825 1.54826 0.774803 1.33629C0.951781 1.12431 1.25354 1.11077 1.4488 1.30603L0.80791 2.07366ZM4.66558 5.22707L5.01913 5.58062L4.69869 5.96443L4.34513 5.61088L4.66558 5.22707ZM7.51803 1.03353C7.69501 0.821557 7.99677 0.808008 8.19203 1.00327C8.38729 1.19853 8.40211 1.52866 8.22514 1.74064L7.51803 1.03353ZM1.4488 1.30603L4.98603 4.84325L4.34513 5.61088L0.80791 2.07366L1.4488 1.30603ZM4.31203 4.87351L7.51803 1.03353L8.22514 1.74064L5.01913 5.58062L4.31203 4.87351Z" fill="#ffffff"/>
</svg>
