<svg width="15" height="10" viewBox="0 0 15 10" fill="none" xmlns="http://www.w3.org/2000/svg">
<path d="M13.809 2.73003C14.1867 2.32711 14.1867 1.67386 13.809 1.27095C13.4312 0.868039 12.8188 0.868039 12.4411 1.27095L13.809 2.73003ZM7.50002 8.00051L6.81608 8.73004L7.50002 9.45958L8.18396 8.73004L7.50002 8.00051ZM2.55894 1.27095C2.18121 0.868039 1.56879 0.868039 1.19106 1.27095C0.813329 1.67386 0.813329 2.32711 1.19106 2.73003L2.55894 1.27095ZM12.4411 1.27095L6.81608 7.27097L8.18396 8.73004L13.809 2.73003L12.4411 1.27095ZM8.18396 7.27097L2.55894 1.27095L1.19106 2.73003L6.81608 8.73004L8.18396 7.27097Z" fill="#0F4049"/>
</svg>
