<svg width="15" height="10" viewBox="0 0 15 10" fill="none" xmlns="http://www.w3.org/2000/svg">
<path d="M13.809 7.27107C14.1867 7.67399 14.1867 8.32723 13.809 8.73015C13.4312 9.13306 12.8188 9.13306 12.4411 8.73015L13.809 7.27107ZM7.50002 2.00059L6.81608 1.27106L7.50002 0.541519L8.18396 1.27106L7.50002 2.00059ZM2.55894 8.73015C2.18121 9.13306 1.56879 9.13306 1.19106 8.73015C0.813329 8.32724 0.813329 7.67399 1.19106 7.27107L2.55894 8.73015ZM12.4411 8.73015L6.81608 2.73013L8.18396 1.27106L13.809 7.27107L12.4411 8.73015ZM8.18396 2.73013L2.55894 8.73015L1.19106 7.27107L6.81608 1.27106L8.18396 2.73013Z" fill="#2DF1F6"/>
</svg>
