<svg width="24" height="24" viewBox="0 0 24 24" fill="none" xmlns="http://www.w3.org/2000/svg">
<path d="M11.9999 8.04876C9.82425 8.04876 8.04872 9.82428 8.04872 12C8.04872 14.1757 9.82425 15.9512 11.9999 15.9512C14.1756 15.9512 15.9512 14.1757 15.9512 12C15.9512 9.82428 14.1756 8.04876 11.9999 8.04876ZM23.8506 12C23.8506 10.3638 23.8655 8.74237 23.7736 7.10912C23.6817 5.21206 23.2489 3.52842 21.8617 2.1412C20.4715 0.751008 18.7908 0.321206 16.8938 0.229317C15.2575 0.137428 13.6362 0.152249 12.0029 0.152249C10.3667 0.152249 8.7453 0.137428 7.11205 0.229317C5.21499 0.321206 3.53135 0.753972 2.14413 2.1412C0.753938 3.53138 0.324135 5.21206 0.232247 7.10912C0.140358 8.74533 0.155179 10.3667 0.155179 12C0.155179 13.6332 0.140358 15.2576 0.232247 16.8908C0.324135 18.7879 0.756902 20.4715 2.14413 21.8587C3.53432 23.2489 5.21499 23.6787 7.11205 23.7706C8.74826 23.8625 10.3697 23.8477 12.0029 23.8477C13.6391 23.8477 15.2605 23.8625 16.8938 23.7706C18.7908 23.6787 20.4745 23.246 21.8617 21.8587C23.2519 20.4686 23.6817 18.7879 23.7736 16.8908C23.8684 15.2576 23.8506 13.6362 23.8506 12ZM11.9999 18.0795C8.63562 18.0795 5.92046 15.3643 5.92046 12C5.92046 8.63566 8.63562 5.92049 11.9999 5.92049C15.3643 5.92049 18.0794 8.63566 18.0794 12C18.0794 15.3643 15.3643 18.0795 11.9999 18.0795ZM18.3284 7.09133C17.5429 7.09133 16.9086 6.457 16.9086 5.6715C16.9086 4.886 17.5429 4.25167 18.3284 4.25167C19.1139 4.25167 19.7482 4.886 19.7482 5.6715C19.7485 5.85802 19.7119 6.04276 19.6406 6.21513C19.5694 6.38749 19.4648 6.54411 19.3329 6.676C19.201 6.80789 19.0444 6.91246 18.872 6.98373C18.6997 7.055 18.5149 7.09157 18.3284 7.09133Z" fill="#09D4DA"/>
</svg>
