<svg width="574" height="252" viewBox="0 0 574 252" fill="none" xmlns="http://www.w3.org/2000/svg">
<path d="M261.271 104.017C266.887 108.033 268.184 115.84 264.168 121.456C260.153 127.071 252.345 128.368 246.73 124.353L261.271 104.017ZM-95.3575 102.844L-88.651 113.393L-95.3575 102.844ZM-446.697 70.5013C-451.655 65.6981 -451.781 57.7845 -446.978 52.8259C-442.175 47.8672 -434.261 47.7412 -429.303 52.5444L-446.697 70.5013ZM246.73 124.353C160.733 62.8577 22.2759 42.8685 -88.651 113.393L-102.064 92.2956C18.725 15.5013 168.268 37.512 261.271 104.017L246.73 124.353ZM-88.651 113.393C-160.743 159.227 -226.567 172.228 -286.898 161.249C-346.889 150.331 -399.712 116.013 -446.697 70.5013L-429.303 52.5444C-384.315 96.1214 -335.778 126.943 -282.421 136.653C-229.404 146.301 -169.893 135.42 -102.064 92.2956L-88.651 113.393Z" fill="#09D4DA"/>
<path d="M570.12 136.175C574.842 131.14 574.588 123.229 569.552 118.507C564.516 113.785 556.606 114.039 551.883 119.075L570.12 136.175ZM218.283 150.17L212.428 161.214L218.283 150.17ZM-133.056 182.513C-138.015 187.316 -138.141 195.23 -133.337 200.188C-128.534 205.147 -120.621 205.273 -115.662 200.47L-133.056 182.513ZM551.883 119.075C471.908 204.36 347.965 204.769 224.138 139.126L212.428 161.214C341.404 229.586 479.247 233.081 570.12 136.175L551.883 119.075ZM224.138 139.126C149.217 99.4088 83.7896 86.5145 24.5489 95.9562C-34.6401 105.39 -85.9098 136.845 -133.056 182.513L-115.662 200.47C-70.8364 157.05 -24.0319 129.015 28.4837 120.645C80.9477 112.283 140.856 123.272 212.428 161.214L224.138 139.126Z" fill="#09D4DA"/>
</svg>
