<svg width="697" height="252" viewBox="0 0 697 252" fill="none" xmlns="http://www.w3.org/2000/svg">
<path d="M384.271 104.017C389.886 108.033 391.183 115.84 387.168 121.456C383.152 127.071 375.345 128.368 369.729 124.353L384.271 104.017ZM27.642 102.844L34.3485 113.393L27.642 102.844ZM-323.697 70.5013C-328.656 65.6981 -328.782 57.7845 -323.979 52.8259C-319.175 47.8672 -311.262 47.7412 -306.303 52.5444L-323.697 70.5013ZM369.729 124.353C283.732 62.8577 145.275 42.8685 34.3485 113.393L20.9355 92.2956C141.724 15.5013 291.268 37.512 384.271 104.017L369.729 124.353ZM34.3485 113.393C-37.7431 159.227 -103.568 172.228 -163.898 161.249C-223.89 150.331 -276.713 116.013 -323.697 70.5013L-306.303 52.5444C-261.316 96.1214 -212.778 126.943 -159.422 136.653C-106.405 146.301 -46.8939 135.42 20.9355 92.2956L34.3485 113.393Z" fill="#09D4DA"/>
<path d="M693.119 136.175C697.842 131.139 697.587 123.229 692.552 118.507C687.516 113.784 679.605 114.039 674.883 119.074L693.119 136.175ZM341.283 150.17L335.428 161.214L341.283 150.17ZM-10.0565 182.513C-15.0151 187.316 -15.1411 195.229 -10.338 200.188C-5.53474 205.147 2.37879 205.273 7.33749 200.47L-10.0565 182.513ZM674.883 119.074C594.907 204.36 470.965 204.769 347.137 139.126L335.428 161.214C464.403 229.586 602.247 233.081 693.119 136.175L674.883 119.074ZM347.137 139.126C272.216 99.4086 206.789 86.5142 147.548 95.956C88.3594 105.389 37.0897 136.845 -10.0565 182.513L7.33749 200.47C52.1631 157.049 98.9676 129.014 151.483 120.644C203.947 112.283 263.855 123.272 335.428 161.214L347.137 139.126Z" fill="#09D4DA"/>
</svg>
